<svg xmlns="http://www.w3.org/2000/svg" viewBox="0 0 700 460" width="700" height="460" font-family="Inter, 'DejaVu Sans', sans-serif" xmlns:c2pa="http://c2pa.org/manifest"><metadata><c2pa:manifest>AAAWgmp1bWIAAAAeanVtZGMycGEAEQAQgAAAqgA4m3EDYzJwYQAAABZcanVtYgAAAEdqdW1kYzJtYQARABCAAACqADibcQN1cm46YzJwYTo1N2ZhYWQ5ZS1lYTUxLTQ4NmItYjAwNC1lY2JmMWY5ZWYyZTkAAAADl2p1bWIAAAApanVtZGMyYXMAEQAQgAAAqgA4m3EDYzJwYS5hc3NlcnRpb25zAAAAALxqdW1iAAAARGp1bWRjYm9yABEAEIAAAKoAOJtxE2MycGEuaW5ncmVkaWVudC52MwAAAAAYYzJzaKBOhVGs6v2qxLWpP1EuyHIAAABwY2JvcqNpZGM6Zm9ybWF0bWltYWdlL3N2Zyt4bWxqaW5zdGFuY2VJRHgseG1wOmlpZDo5Nzc1YjkwOS0xNmY4LTRmMDYtYjcyMi01NTRmNjllNzFiMmZscmVsYXRpb25zaGlwaHBhcmVudE9mAAAB4mp1bWIAAABBanVtZGNib3IAEQAQgAAAqgA4m3ETYzJwYS5hY3Rpb25zLnYyAAAAABhjMnNol+PPylfLLioMjJfjX7CVGAAAAZljYm9yomdhY3Rpb25zgqJmYWN0aW9ua2MycGEub3BlbmVkanBhcmFtZXRlcnOha2luZ3JlZGllbnRzgaJjdXJseC1zZWxmI2p1bWJmPWMycGEuYXNzZXJ0aW9ucy9jMnBhLmluZ3JlZGllbnQudjNkaGFzaFgguZMongDfFn/7eNUnBe9FhrkOqNL8H3HtJiprvGA94MukZmFjdGlvbngdY29tLmFudGhyb3BpYy5jbGF1ZGUucHJvdmlkZWRqcGFyYW1ldGVyc6F4H2NvbS5hbnRocm9waWMub3JpZ2luLWNvbmZpZGVuY2VndW5rbm93bmtkZXNjcmlwdGlvbnhmQ2xhdWRlIHByb3ZpZGVkIHRoaXMgZmlsZSBhdCB0aGUgcmVxdWVzdCBvZiBhIHVzZXIgYW5kIG1heSBoYXZlIGNyZWF0ZWQgb3IgbW9kaWZpZWQgdGhlIGZpbGUgY29udGVudHMubXNvZnR3YXJlQWdlbnShZG5hbWVmQ2xhdWRlcmFsbEFjdGlvbnNJbmNsdWRlZPUAAADIanVtYgAAAEBqdW1kY2JvcgARABCAAACqADibcRNjMnBhLmhhc2guZGF0YQAAAAAYYzJzaEsnx4tOc9BSuPGf+aXqvpQAAACAY2JvcqVjYWxnZnNoYTI1NmNwYWRNAAAAAAAAAAAAAAAAAGRoYXNoWCCL7MxxDnX+rzI+DVoRAjFCuv4/JBiQ6XpJ6w0wdM8zOmRuYW1lbmp1bWJmIG1hbmlmZXN0amV4Y2x1c2lvbnOBomVzdGFydBjFZmxlbmd0aBkeBAAAAj5qdW1iAAAAJ2p1bWRjMmNsABEAEIAAAKoAOJtxA2MycGEuY2xhaW0udjIAAAACD2Nib3KlY2FsZ2ZzaGEyNTZpc2lnbmF0dXJleE1zZWxmI2p1bWJmPS9jMnBhL3VybjpjMnBhOjU3ZmFhZDllLWVhNTEtNDg2Yi1iMDA0LWVjYmYxZjllZjJlOS9jMnBhLnNpZ25hdHVyZWppbnN0YW5jZUlEeCx4bXA6aWlkOmQ3YzhkOTE3LTYyOTYtNGYzYi1iYjk5LWQ1MjM0NmI2YWUzY3JjcmVhdGVkX2Fzc2VydGlvbnODomN1cmx4LXNlbGYjanVtYmY9YzJwYS5hc3NlcnRpb25zL2MycGEuaW5ncmVkaWVudC52M2RoYXNoWCC5kyieAN8Wf/t41ScF70WGuQ6o0vwfce0mKmu8YD3gy6JjdXJseCpzZWxmI2p1bWJmPWMycGEuYXNzZXJ0aW9ucy9jMnBhLmFjdGlvbnMudjJkaGFzaFgg6mj1uvcltZ55cYsHf/lp1sk3gogv6qeYK5TtYIebC2KiY3VybHgpc2VsZiNqdW1iZj1jMnBhLmFzc2VydGlvbnMvYzJwYS5oYXNoLmRhdGFkaGFzaFggPwDKbEn/ua2rO30ZwS6b1ybGwIhtilfIRfsII8kQ+iZ0Y2xhaW1fZ2VuZXJhdG9yX2luZm+jZG5hbWVvQW50aHJvcGljIEZpbGVzZ3ZlcnNpb25lMS4wLjBrc3BlY1ZlcnNpb25lMi40LjAAABA4anVtYgAAAChqdW1kYzJjcwARABCAAACqADibcQNjMnBhLnNpZ25hdHVyZQAAABAIY2JvctKEWQISogEmGCFZAgowggIGMIIBjaADAgECAhRA5aAK7sI50L64g/oGQgU9Z1UTADAKBggqhkjOPQQDAzBJMRcwFQYDVQQKEw5BbnRocm9waWMsIFBCQzEuMCwGA1UEAxMlQW50aHJvcGljIENvbnRlbnQgQ3JlZGVudGlhbHMgUm9vdCBDQTAeFw0yNjA4MDcxODQzNTZaFw0yODA4MDYxOTQzNTZaMEQxFzAVBgNVBAoTDkFudGhyb3BpYywgUEJDMSkwJwYDVQQDEyBBbnRocm9waWMgQ2xhdWRlIENvbnRlbnQgU2lnbmluZzBZMBMGByqGSM49AgEGCCqGSM49AwEHA0IABJh6CmvLUBgFFNU0vUKlOVtE6djd17L5SuwX0LemFisBM3dkd/3cyjxFA3Qo5S46fX0/ihY0VZ7mfb9KF703t5OjWDBWMA4GA1UdDwEB/wQEAwIHgDAVBgNVHSUEDjAMBgorBgEEAYPoXgIBMAwGA1UdEwEB/wQCMAAwHwYDVR0jBBgwFoAUzlHiBIFOZFsj+OPEz5o+nMHXXMIwCgYIKoZIzj0EAwMDZwAwZAIwMXMdFJ4BetLLVY7ORuE9noqbbAZOZn/aArXyTwFAZfKrPzxF2vPoJNf1+UCdg1XGAjBwX1zd9WGqYkqmL5SFqw1QySjr1zJfpJM9+1rdDwSPLMOPOjKuiXjoU/pUUeG9RwmhY3BhZFkNngAAAAAAAAAAAAAAAAAAAAAAAAAAAAAAAAAAAAAAAAAAAAAAAAAAAAAAAAAAAAAAAAAAAAAAAAAAAAAAAAAAAAAAAAAAAAAAAAAAAAAAAAAAAAAAAAAAAAAAAAAAAAAAAAAAAAAAAAAAAAAAAAAAAAAAAAAAAAAAAAAAAAAAAAAAAAAAAAAAAAAAAAAAAAAAAAAAAAAAAAAAAAAAAAAAAAAAAAAAAAAAAAAAAAAAAAAAAAAAAAAAAAAAAAAAAAAAAAAAAAAAAAAAAAAAAAAAAAAAAAAAAAAAAAAAAAAAAAAAAAAAAAAAAAAAAAAAAAAAAAAAAAAAAAAAAAAAAAAAAAAAAAAAAAAAAAAAAAAAAAAAAAAAAAAAAAAAAAAAAAAAAAAAAAAAAAAAAAAAAAAAAAAAAAAAAAAAAAAAAAAAAAAAAAAAAAAAAAAAAAAAAAAAAAAAAAAAAAAAAAAAAAAAAAAAAAAAAAAAAAAAAAAAAAAAAAAAAAAAAAAAAAAAAAAAAAAAAAAAAAAAAAAAAAAAAAAAAAAAAAAAAAAAAAAAAAAAAAAAAAAAAAAAAAAAAAAAAAAAAAAAAAAAAAAAAAAAAAAAAAAAAAAAAAAAAAAAAAAAAAAAAAAAAAAAAAAAAAAAAAAAAAAAAAAAAAAAAAAAAAAAAAAAAAAAAAAAAAAAAAAAAAAAAAAAAAAAAAAAAAAAAAAAAAAAAAAAAAAAAAAAAAAAAAAAAAAAAAAAAAAAAAAAAAAAAAAAAAAAAAAAAAAAAAAAAAAAAAAAAAAAAAAAAAAAAAAAAAAAAAAAAAAAAAAAAAAAAAAAAAAAAAAAAAAAAAAAAAAAAAAAAAAAAAAAAAAAAAAAAAAAAAAAAAAAAAAAAAAAAAAAAAAAAAAAAAAAAAAAAAAAAAAAAAAAAAAAAAAAAAAAAAAAAAAAAAAAAAAAAAAAAAAAAAAAAAAAAAAAAAAAAAAAAAAAAAAAAAAAAAAAAAAAAAAAAAAAAAAAAAAAAAAAAAAAAAAAAAAAAAAAAAAAAAAAAAAAAAAAAAAAAAAAAAAAAAAAAAAAAAAAAAAAAAAAAAAAAAAAAAAAAAAAAAAAAAAAAAAAAAAAAAAAAAAAAAAAAAAAAAAAAAAAAAAAAAAAAAAAAAAAAAAAAAAAAAAAAAAAAAAAAAAAAAAAAAAAAAAAAAAAAAAAAAAAAAAAAAAAAAAAAAAAAAAAAAAAAAAAAAAAAAAAAAAAAAAAAAAAAAAAAAAAAAAAAAAAAAAAAAAAAAAAAAAAAAAAAAAAAAAAAAAAAAAAAAAAAAAAAAAAAAAAAAAAAAAAAAAAAAAAAAAAAAAAAAAAAAAAAAAAAAAAAAAAAAAAAAAAAAAAAAAAAAAAAAAAAAAAAAAAAAAAAAAAAAAAAAAAAAAAAAAAAAAAAAAAAAAAAAAAAAAAAAAAAAAAAAAAAAAAAAAAAAAAAAAAAAAAAAAAAAAAAAAAAAAAAAAAAAAAAAAAAAAAAAAAAAAAAAAAAAAAAAAAAAAAAAAAAAAAAAAAAAAAAAAAAAAAAAAAAAAAAAAAAAAAAAAAAAAAAAAAAAAAAAAAAAAAAAAAAAAAAAAAAAAAAAAAAAAAAAAAAAAAAAAAAAAAAAAAAAAAAAAAAAAAAAAAAAAAAAAAAAAAAAAAAAAAAAAAAAAAAAAAAAAAAAAAAAAAAAAAAAAAAAAAAAAAAAAAAAAAAAAAAAAAAAAAAAAAAAAAAAAAAAAAAAAAAAAAAAAAAAAAAAAAAAAAAAAAAAAAAAAAAAAAAAAAAAAAAAAAAAAAAAAAAAAAAAAAAAAAAAAAAAAAAAAAAAAAAAAAAAAAAAAAAAAAAAAAAAAAAAAAAAAAAAAAAAAAAAAAAAAAAAAAAAAAAAAAAAAAAAAAAAAAAAAAAAAAAAAAAAAAAAAAAAAAAAAAAAAAAAAAAAAAAAAAAAAAAAAAAAAAAAAAAAAAAAAAAAAAAAAAAAAAAAAAAAAAAAAAAAAAAAAAAAAAAAAAAAAAAAAAAAAAAAAAAAAAAAAAAAAAAAAAAAAAAAAAAAAAAAAAAAAAAAAAAAAAAAAAAAAAAAAAAAAAAAAAAAAAAAAAAAAAAAAAAAAAAAAAAAAAAAAAAAAAAAAAAAAAAAAAAAAAAAAAAAAAAAAAAAAAAAAAAAAAAAAAAAAAAAAAAAAAAAAAAAAAAAAAAAAAAAAAAAAAAAAAAAAAAAAAAAAAAAAAAAAAAAAAAAAAAAAAAAAAAAAAAAAAAAAAAAAAAAAAAAAAAAAAAAAAAAAAAAAAAAAAAAAAAAAAAAAAAAAAAAAAAAAAAAAAAAAAAAAAAAAAAAAAAAAAAAAAAAAAAAAAAAAAAAAAAAAAAAAAAAAAAAAAAAAAAAAAAAAAAAAAAAAAAAAAAAAAAAAAAAAAAAAAAAAAAAAAAAAAAAAAAAAAAAAAAAAAAAAAAAAAAAAAAAAAAAAAAAAAAAAAAAAAAAAAAAAAAAAAAAAAAAAAAAAAAAAAAAAAAAAAAAAAAAAAAAAAAAAAAAAAAAAAAAAAAAAAAAAAAAAAAAAAAAAAAAAAAAAAAAAAAAAAAAAAAAAAAAAAAAAAAAAAAAAAAAAAAAAAAAAAAAAAAAAAAAAAAAAAAAAAAAAAAAAAAAAAAAAAAAAAAAAAAAAAAAAAAAAAAAAAAAAAAAAAAAAAAAAAAAAAAAAAAAAAAAAAAAAAAAAAAAAAAAAAAAAAAAAAAAAAAAAAAAAAAAAAAAAAAAAAAAAAAAAAAAAAAAAAAAAAAAAAAAAAAAAAAAAAAAAAAAAAAAAAAAAAAAAAAAAAAAAAAAAAAAAAAAAAAAAAAAAAAAAAAAAAAAAAAAAAAAAAAAAAAAAAAAAAAAAAAAAAAAAAAAAAAAAAAAAAAAAAAAAAAAAAAAAAAAAAAAAAAAAAAAAAAAAAAAAAAAAAAAAAAAAAAAAAAAAAAAAAAAAAAAAAAAAAAAAAAAAAAAAAAAAAAAAAAAAAAAAAAAAAAAAAAAAAAAAAAAAAAAAAAAAAAAAAAAAAAAAAAAAAAAAAAAAAAAAAAAAAAAAAAAAAAAAAAAAAAAAAAAAAAAAAAAAAAAAAAAAAAAAAAAAAAAAAAAAAAAAAAAAAAAAAAAAAAAAAAAAAAAAAAAAAAAAAAAAAAAAAAAAAAAAAAAAAAAAAAAAAAAAAAAAAAAAAAAAAAAAAAAAAAAAAAAAAAAAAAAAAAAAAAAAAAAAAAAAAAAAAAAAAAAAAAAAAAAAAAAAAAAAAAAAAAAAAAAAAAAAAAAAAAAAAAAAAAAAAAAAAAAAAAAAAAAAAAAAAAAAAAAAAAAAAAAAAAAAAAAAAAAAAAAAAAAAAAAAAAAAAAAAAAAAAAAAAAAAAAAAAAAAAAAAAAAAAAAAAAAAAAAAAAAAAAAAAAAAAAAAAAAAAAAAAAAAAAAAAAAAAAAAAAAAAAAAAAAAAAAAAAAAAAAAAAAAAAAAAAAAAAAAAAAAAAAAAAAAAAAAAAAAAAAAAAAAAAAAAAAAAAAAAAAAAAAAAAAAAAAAAAAAAAAAAAAAAAAAAAAAAAAAAAAAAAAAAAAAAAAAAAAAAAAAAAAAAAAAAAAAAAAAAAAAAAAAAAAAAAAAAAAAAAAAAAAAAAAAAAAAAAAAAAAAAAAAAAAAAAAAAAAAAAAAAAAAAAAAAAAAAAAAAAAAAAAAAAAAAAAAAAAAAAAAAAAAAAAAAAAAAAAAAAAAAAAAAAAAAAAAAAAAAAAAAAAAAAAAAAAAAAAAAAAAAAAAAAAAAAAAAAAAAAAAAAAAAAAAAAAAAAAAAAAAAAAAAAAAAAAAAAAAAAAAAAAAAAAAAAAAAAAAAAAAAAAAAAAAAAAAAAAAAAAAAAAAAAAAAAAAAAAAAAAAAAAAAAAAAAAAAAAAAAAAAAAAAAAAAAAAAAAAAAAAAAAAAAAAAAAAAAAAAAAAAAAAAAAAAAAAAAAAAAAAAAAAAAAAAAAAAAAAAAAAAAAAAAAAAAAAAAAAAAAAAAAAAAAAAAAAAAAAAAAAAAAAAAAAAAAAAAAAAAAAAAAAAAAAAAAAAAAAAAAAAAAAAAAAAAAAAAAAAAAAAAAAAAAAAAAAAAAAAAAAAAAAAAAAAAAAAAAAAAAAAAAAAAAAAAAAAAAAAAAAAAAAAAAAAAAAAAAAAAAAAAAAAAAAAAAAAAAAAAAAAAAAAAAAAAAAAAAAAAAAAAAAAAAAAAAAAAAAAAAAAAAAAAAAAAAAAAAAAAAAAAAAAAAAAAAAAAAAAAAAAAAAAAAAAAAAAAAAAAAAAAAAAAAAAAAAAAAAAAAAAAAAAAAAAAAAAAAAAAAAAAAAAAAAAAAAAAAAAAAAAAAAAAAAAAAAAAAAAAAAAAAAAAAAAAAAAAAAAAAAAAAAAAAAAAAAAAAAAAAAAAAAAAAAAAAAAAAAAAAAAAAAAAAAAAAAAAAAAAAAAAAAAAAAAAAAAAAAAAAAAAAAAAAAAAAAAAAAAAAAAAAAAAAAAAAAAAAAAAAAAAAAAAAAAAAAAAAAAAAAAAAAAAAAAAAAAAAAAAAAAAAAAAAAAAAAAAAAAAAAAAAAAAAAAAAAAAAAAAAAAAAAAAAAAAAAAAAAAAAAAAAAAAAAAAAAAAAAAAAAAAAAAAAAAAAAAAAAAAAAAAAAAAAAAAAAAAPZYQAbe6F5+vewnnt4iOud+hbzICBBIqvN2k0CMxJadO3blICGO9agZk2fw0qHw3dY+dlD/rksz/ZoM4LBDsZHqCLQ=</c2pa:manifest></metadata><defs><filter id="sh" x="-10%" y="-10%" width="130%" height="140%"><feDropShadow dx="0" dy="1.5" stdDeviation="2.2" flood-color="#1f2328" flood-opacity="0.13"/></filter><marker id="m6d3fc4" viewBox="0 0 10 10" refX="8.6" refY="5" markerWidth="7" markerHeight="7" orient="auto"><path d="M0,0.8 L9.5,5 L0,9.2 L2.6,5 z" fill="#6d3fc4"/></marker><marker id="m6d3fc4s" viewBox="0 0 10 10" refX="1.4" refY="5" markerWidth="7" markerHeight="7" orient="auto"><path d="M10,0.8 L0.5,5 L10,9.2 L7.4,5 z" fill="#6d3fc4"/></marker></defs><path d="M90.0,370.0 L510.0,370.0" fill="none" stroke="#eceef1" stroke-width="1" stroke-linecap="round" stroke-linejoin="round" opacity="1"/><text x="83.0" y="373.7" font-size="10.5" font-weight="400" fill="#6b7280" text-anchor="end"><tspan x="83.0" dy="0.0">0</tspan></text><path d="M90.0,272.9 L510.0,272.9" fill="none" stroke="#eceef1" stroke-width="1" stroke-linecap="round" stroke-linejoin="round" opacity="1"/><text x="83.0" y="276.5" font-size="10.5" font-weight="400" fill="#6b7280" text-anchor="end"><tspan x="83.0" dy="0.0">40</tspan></text><path d="M90.0,175.7 L510.0,175.7" fill="none" stroke="#eceef1" stroke-width="1" stroke-linecap="round" stroke-linejoin="round" opacity="1"/><text x="83.0" y="179.4" font-size="10.5" font-weight="400" fill="#6b7280" text-anchor="end"><tspan x="83.0" dy="0.0">80</tspan></text><path d="M90.0,78.6 L510.0,78.6" fill="none" stroke="#eceef1" stroke-width="1" stroke-linecap="round" stroke-linejoin="round" opacity="1"/><text x="83.0" y="82.2" font-size="10.5" font-weight="400" fill="#6b7280" text-anchor="end"><tspan x="83.0" dy="0.0">120</tspan></text><text x="90.0" y="386.0" font-size="10.5" font-weight="400" fill="#6b7280" text-anchor="middle"><tspan x="90.0" dy="0.0">0</tspan></text><text x="195.0" y="386.0" font-size="10.5" font-weight="400" fill="#6b7280" text-anchor="middle"><tspan x="195.0" dy="0.0">40</tspan></text><text x="300.0" y="386.0" font-size="10.5" font-weight="400" fill="#6b7280" text-anchor="middle"><tspan x="300.0" dy="0.0">80</tspan></text><text x="405.0" y="386.0" font-size="10.5" font-weight="400" fill="#6b7280" text-anchor="middle"><tspan x="405.0" dy="0.0">120</tspan></text><text x="510.0" y="386.0" font-size="10.5" font-weight="400" fill="#6b7280" text-anchor="middle"><tspan x="510.0" dy="0.0">160</tspan></text><path d="M90.0,370.0 L510.0,370.0" fill="none" stroke="#9aa1ab" stroke-width="1.3" stroke-linecap="round" stroke-linejoin="round" opacity="1"/><path d="M90.0,30.0 L90.0,370.0" fill="none" stroke="#9aa1ab" stroke-width="1.3" stroke-linecap="round" stroke-linejoin="round" opacity="1"/><text x="300.0" y="404.0" font-size="11.5" font-weight="400" fill="#6b7280" text-anchor="middle"><tspan x="300.0" dy="0.0">volume do VE (mℓ)</tspan></text><text x="48.0" y="200.0" font-size="11.5" font-weight="400" fill="#6b7280" text-anchor="middle" transform="rotate(-90 48.0 200.0)"><tspan x="48.0" dy="0.0">pressão do VE (mmHg)</tspan></text><path d="M116.2,370.0 L273.8,42.1" fill="none" stroke="#6b7280" stroke-width="1.4" stroke-linecap="round" stroke-linejoin="round" opacity="1" stroke-dasharray="5 4"/><text x="252.8" y="37.3" font-size="10" font-weight="400" fill="#6b7280" text-anchor="start"><tspan x="252.8" dy="0.0">RPVSF (contratilidade)</tspan></text><path d="M168.8,362.7 L179.2,362.7 L189.8,362.7 L200.2,362.7 L210.8,362.6 L221.2,362.4 L231.8,362.0 L242.2,361.3 L252.8,360.5 L263.2,359.4 L273.8,358.0 L284.2,356.4 L294.8,354.5 L305.2,352.2 L315.8,349.6 L326.2,346.7 L336.8,343.5 L347.2,339.9 L357.8,336.0 L368.2,331.6 L378.8,326.9 L389.2,321.8 L399.8,316.3 L410.2,310.4 L420.8,304.0 L431.2,297.3 L441.8,290.1 L452.2,282.4 L462.8,274.3 L473.2,265.8" fill="none" stroke="#6b7280" stroke-width="1.4" stroke-linecap="round" stroke-linejoin="round" opacity="1" stroke-dasharray="5 4"/><text x="473.2" y="214.6" font-size="10" font-weight="400" fill="#6b7280" text-anchor="middle"><tspan x="473.2" dy="0.0">curva diastólica</tspan><tspan x="473.2" dy="12.5">(complacência)</tspan></text><path d="M221.2,357.9 L230.4,357.8 L239.6,357.8 L248.8,357.7 L258.0,357.5 L267.2,357.3 L276.4,357.0 L285.6,356.7 L294.8,356.2 L303.9,355.8 L313.1,355.2 L322.3,354.6 L331.5,353.9 L340.7,353.2 L349.9,352.3 L359.1,351.4 L368.2,350.4 L377.4,349.4 L386.6,348.2 L395.8,347.0 L405.0,345.7 L405.0,175.7 L405.0,175.7 L398.9,168.6 L392.8,161.5 L386.6,154.5 L380.5,147.7 L374.4,141.1 L368.2,134.7 L362.1,128.8 L356.0,123.1 L349.9,118.0 L343.8,113.2 L337.6,109.0 L331.5,105.4 L325.4,102.3 L319.2,99.8 L313.1,97.9 L307.0,96.7 L300.9,96.1 L294.8,96.2 L288.6,97.0 L282.5,98.5 L276.4,100.7 L270.2,103.5 L264.1,107.0 L258.0,111.1 L251.9,115.9 L245.8,121.2 L239.6,127.1 L233.5,133.5 L227.4,140.4 L221.2,147.8 L221.2,127.1 L221.2,357.9" fill="#fde8eb" stroke="none" stroke-width="2.2" stroke-linecap="round" stroke-linejoin="round" opacity="1"/><path d="M221.2,357.9 L230.4,357.8 L239.6,357.8 L248.8,357.7 L258.0,357.5 L267.2,357.3 L276.4,357.0 L285.6,356.7 L294.8,356.2 L303.9,355.8 L313.1,355.2 L322.3,354.6 L331.5,353.9 L340.7,353.2 L349.9,352.3 L359.1,351.4 L368.2,350.4 L377.4,349.4 L386.6,348.2 L395.8,347.0 L405.0,345.7 L405.0,175.7 L405.0,175.7 L398.9,168.6 L392.8,161.5 L386.6,154.5 L380.5,147.7 L374.4,141.1 L368.2,134.7 L362.1,128.8 L356.0,123.1 L349.9,118.0 L343.8,113.2 L337.6,109.0 L331.5,105.4 L325.4,102.3 L319.2,99.8 L313.1,97.9 L307.0,96.7 L300.9,96.1 L294.8,96.2 L288.6,97.0 L282.5,98.5 L276.4,100.7 L270.2,103.5 L264.1,107.0 L258.0,111.1 L251.9,115.9 L245.8,121.2 L239.6,127.1 L233.5,133.5 L227.4,140.4 L221.2,147.8 L221.2,127.1 L221.2,357.9" fill="none" stroke="#b42336" stroke-width="3" stroke-linecap="round" stroke-linejoin="round" opacity="1"/><circle cx="221.2" cy="357.9" r="6" fill="#fff" stroke="#b42336" stroke-width="2.2" opacity="1"/><circle cx="405.0" cy="345.7" r="6" fill="#fff" stroke="#b42336" stroke-width="2.2" opacity="1"/><circle cx="405.0" cy="175.7" r="6" fill="#fff" stroke="#b42336" stroke-width="2.2" opacity="1"/><circle cx="221.2" cy="127.1" r="6" fill="#fff" stroke="#b42336" stroke-width="2.2" opacity="1"/><text x="211.2" y="353.9" font-size="10.5" font-weight="600" fill="#1f2328" text-anchor="end"><tspan x="211.2" dy="0.0">A · abre a mitral</tspan></text><text x="413.0" y="363.7" font-size="10.5" font-weight="600" fill="#1f2328" text-anchor="start"><tspan x="413.0" dy="0.0">B · fecha a mitral (VDF)</tspan></text><text x="415.0" y="179.7" font-size="10.5" font-weight="600" fill="#1f2328" text-anchor="start"><tspan x="415.0" dy="0.0">C · abre a aórtica</tspan></text><text x="211.2" y="117.1" font-size="10.5" font-weight="600" fill="#1f2328" text-anchor="end"><tspan x="211.2" dy="0.0">D · fecha a aórtica (VSF)</tspan></text><circle cx="313.1" cy="362.7" r="13" fill="#b42336" stroke="#fff" stroke-width="2" opacity="1"/><text x="313.1" y="366.6" font-size="11" font-weight="800" fill="#fff" text-anchor="middle"><tspan x="313.1" dy="0.0">I</tspan></text><circle cx="426.0" cy="260.7" r="13" fill="#b42336" stroke="#fff" stroke-width="2" opacity="1"/><text x="426.0" y="264.6" font-size="11" font-weight="800" fill="#fff" text-anchor="middle"><tspan x="426.0" dy="0.0">II</tspan></text><circle cx="344.6" cy="68.9" r="13" fill="#b42336" stroke="#fff" stroke-width="2" opacity="1"/><text x="344.6" y="72.7" font-size="11" font-weight="800" fill="#fff" text-anchor="middle"><tspan x="344.6" dy="0.0">III</tspan></text><circle cx="195.0" cy="243.7" r="13" fill="#b42336" stroke="#fff" stroke-width="2" opacity="1"/><text x="195.0" y="247.6" font-size="11" font-weight="800" fill="#fff" text-anchor="middle"><tspan x="195.0" dy="0.0">IV</tspan></text><text x="313.1" y="221.0" font-size="12" font-weight="700" fill="#b42336" text-anchor="middle"><tspan x="313.1" dy="0.0">trabalho</tspan><tspan x="313.1" dy="15.0">externo (TE)</tspan></text><path d="M221.2,428.0 L405.0,428.0" fill="none" stroke="#6d3fc4" stroke-width="2" stroke-linecap="round" stroke-linejoin="round" marker-end="url(#m6d3fc4)" marker-start="url(#m6d3fc4s)"/><text x="313.1" y="446.0" font-size="10.5" font-weight="700" fill="#6d3fc4" text-anchor="middle"><tspan x="313.1" dy="0.0">volume sistólico ≈ 70 mℓ</tspan></text><rect x="530.0" y="40.0" width="160.0" height="190.0" rx="12" fill="#fbfbfc" stroke="#d7dbe0" stroke-width="1.2" opacity="1"/><text x="544.0" y="62.0" font-size="12.5" font-weight="700" fill="#1f2328" text-anchor="start"><tspan x="544.0" dy="0.0">Fases</tspan></text><circle cx="556.0" cy="91.0" r="10" fill="#b42336" stroke="none" stroke-width="1.2" opacity="1"/><text x="556.0" y="94.2" font-size="9" font-weight="800" fill="#fff" text-anchor="middle"><tspan x="556.0" dy="0.0">I</tspan></text><text x="572.0" y="93.5" font-size="10.5" font-weight="400" fill="#1f2328" text-anchor="start"><tspan x="572.0" dy="0.0">enchimento</tspan></text><circle cx="556.0" cy="127.0" r="10" fill="#b42336" stroke="none" stroke-width="1.2" opacity="1"/><text x="556.0" y="130.2" font-size="9" font-weight="800" fill="#fff" text-anchor="middle"><tspan x="556.0" dy="0.0">II</tspan></text><text x="572.0" y="129.4" font-size="10.5" font-weight="400" fill="#1f2328" text-anchor="start"><tspan x="572.0" dy="0.0">contração</tspan><tspan x="572.0" dy="13.1">isovolumétrica</tspan></text><circle cx="556.0" cy="163.0" r="10" fill="#b42336" stroke="none" stroke-width="1.2" opacity="1"/><text x="556.0" y="166.2" font-size="9" font-weight="800" fill="#fff" text-anchor="middle"><tspan x="556.0" dy="0.0">III</tspan></text><text x="572.0" y="165.4" font-size="10.5" font-weight="400" fill="#1f2328" text-anchor="start"><tspan x="572.0" dy="0.0">ejeção</tspan></text><circle cx="556.0" cy="199.0" r="10" fill="#b42336" stroke="none" stroke-width="1.2" opacity="1"/><text x="556.0" y="202.2" font-size="9" font-weight="800" fill="#fff" text-anchor="middle"><tspan x="556.0" dy="0.0">IV</tspan></text><text x="572.0" y="201.4" font-size="10.5" font-weight="400" fill="#1f2328" text-anchor="start"><tspan x="572.0" dy="0.0">relaxamento</tspan><tspan x="572.0" dy="13.1">isovolumétrico</tspan></text><rect x="530.0" y="244.0" width="160.0" height="110.0" rx="12" fill="#e6eefb" stroke="#2458b3" stroke-width="1" opacity="1"/><text x="544.0" y="264.0" font-size="11" font-weight="700" fill="#2458b3" text-anchor="start"><tspan x="544.0" dy="0.0">Pré-carga ↑</tspan></text><text x="544.0" y="280.0" font-size="10" font-weight="400" fill="#1f2328" text-anchor="start"><tspan x="544.0" dy="0.0">alça mais larga à direita</tspan></text><text x="544.0" y="304.0" font-size="11" font-weight="700" fill="#b42336" text-anchor="start"><tspan x="544.0" dy="0.0">Pós-carga ↑</tspan></text><text x="544.0" y="320.0" font-size="10" font-weight="400" fill="#1f2328" text-anchor="start"><tspan x="544.0" dy="0.0">alça mais alta e estreita</tspan></text><text x="544.0" y="342.0" font-size="10" font-weight="400" fill="#6b7280" text-anchor="start"><tspan x="544.0" dy="0.0">(↓ volume sistólico)</tspan></text></svg>