<svg xmlns="http://www.w3.org/2000/svg" viewBox="0 0 820 600" width="820" height="600" font-family="Inter, 'DejaVu Sans', sans-serif" xmlns:c2pa="http://c2pa.org/manifest"><metadata><c2pa:manifest>AAAWgmp1bWIAAAAeanVtZGMycGEAEQAQgAAAqgA4m3EDYzJwYQAAABZcanVtYgAAAEdqdW1kYzJtYQARABCAAACqADibcQN1cm46YzJwYTo5MjYyMWI4MC05Y2Y0LTRhNjMtOTQ0OS05OTQwOTg2ZTYyMjcAAAADl2p1bWIAAAApanVtZGMyYXMAEQAQgAAAqgA4m3EDYzJwYS5hc3NlcnRpb25zAAAAALxqdW1iAAAARGp1bWRjYm9yABEAEIAAAKoAOJtxE2MycGEuaW5ncmVkaWVudC52MwAAAAAYYzJzaAFvgmbjrx4F1HW50rTvYMgAAABwY2JvcqNpZGM6Zm9ybWF0bWltYWdlL3N2Zyt4bWxqaW5zdGFuY2VJRHgseG1wOmlpZDo2YzE2NzdhMS04YTdjLTRjODctYmQ3NS1lODA4MzI4MWQ0NjJscmVsYXRpb25zaGlwaHBhcmVudE9mAAAB4mp1bWIAAABBanVtZGNib3IAEQAQgAAAqgA4m3ETYzJwYS5hY3Rpb25zLnYyAAAAABhjMnNoObxcLAa3kdfEB5LqPJLSOAAAAZljYm9yomdhY3Rpb25zgqJmYWN0aW9ua2MycGEub3BlbmVkanBhcmFtZXRlcnOha2luZ3JlZGllbnRzgaJjdXJseC1zZWxmI2p1bWJmPWMycGEuYXNzZXJ0aW9ucy9jMnBhLmluZ3JlZGllbnQudjNkaGFzaFggQU/vRoJuObtbyQEsUwppxlFV98zgaYgg730NXazem5KkZmFjdGlvbngdY29tLmFudGhyb3BpYy5jbGF1ZGUucHJvdmlkZWRqcGFyYW1ldGVyc6F4H2NvbS5hbnRocm9waWMub3JpZ2luLWNvbmZpZGVuY2VndW5rbm93bmtkZXNjcmlwdGlvbnhmQ2xhdWRlIHByb3ZpZGVkIHRoaXMgZmlsZSBhdCB0aGUgcmVxdWVzdCBvZiBhIHVzZXIgYW5kIG1heSBoYXZlIGNyZWF0ZWQgb3IgbW9kaWZpZWQgdGhlIGZpbGUgY29udGVudHMubXNvZnR3YXJlQWdlbnShZG5hbWVmQ2xhdWRlcmFsbEFjdGlvbnNJbmNsdWRlZPUAAADIanVtYgAAAEBqdW1kY2JvcgARABCAAACqADibcRNjMnBhLmhhc2guZGF0YQAAAAAYYzJzaMBl5gzDdpPlXRyQoz3g7GEAAACAY2JvcqVjYWxnZnNoYTI1NmNwYWRNAAAAAAAAAAAAAAAAAGRoYXNoWCA6HDwDdzUv7SK5c624yoSZqB9lD2BANgZvJRb800WUsWRuYW1lbmp1bWJmIG1hbmlmZXN0amV4Y2x1c2lvbnOBomVzdGFydBjFZmxlbmd0aBkeBAAAAj5qdW1iAAAAJ2p1bWRjMmNsABEAEIAAAKoAOJtxA2MycGEuY2xhaW0udjIAAAACD2Nib3KlY2FsZ2ZzaGEyNTZpc2lnbmF0dXJleE1zZWxmI2p1bWJmPS9jMnBhL3VybjpjMnBhOjkyNjIxYjgwLTljZjQtNGE2My05NDQ5LTk5NDA5ODZlNjIyNy9jMnBhLnNpZ25hdHVyZWppbnN0YW5jZUlEeCx4bXA6aWlkOmNjMjlmMjEzLThiNzAtNDE4OS1hMDgxLWU4NGE0MjU4MWVjMXJjcmVhdGVkX2Fzc2VydGlvbnODomN1cmx4LXNlbGYjanVtYmY9YzJwYS5hc3NlcnRpb25zL2MycGEuaW5ncmVkaWVudC52M2RoYXNoWCBBT+9Ggm45u1vJASxTCmnGUVX3zOBpiCDvfQ1drN6bkqJjdXJseCpzZWxmI2p1bWJmPWMycGEuYXNzZXJ0aW9ucy9jMnBhLmFjdGlvbnMudjJkaGFzaFggaRHkC7IRCzv10RlslFV9G5HrCuPEPCjpPTz4q13dOJ+iY3VybHgpc2VsZiNqdW1iZj1jMnBhLmFzc2VydGlvbnMvYzJwYS5oYXNoLmRhdGFkaGFzaFgg1xbQ/KHQAeG36Gzr1l5IY6xFSeA2/vIW/zI7R57vr8J0Y2xhaW1fZ2VuZXJhdG9yX2luZm+jZG5hbWVvQW50aHJvcGljIEZpbGVzZ3ZlcnNpb25lMS4wLjBrc3BlY1ZlcnNpb25lMi40LjAAABA4anVtYgAAAChqdW1kYzJjcwARABCAAACqADibcQNjMnBhLnNpZ25hdHVyZQAAABAIY2JvctKEWQISogEmGCFZAgowggIGMIIBjaADAgECAhRA5aAK7sI50L64g/oGQgU9Z1UTADAKBggqhkjOPQQDAzBJMRcwFQYDVQQKEw5BbnRocm9waWMsIFBCQzEuMCwGA1UEAxMlQW50aHJvcGljIENvbnRlbnQgQ3JlZGVudGlhbHMgUm9vdCBDQTAeFw0yNjA4MDcxODQzNTZaFw0yODA4MDYxOTQzNTZaMEQxFzAVBgNVBAoTDkFudGhyb3BpYywgUEJDMSkwJwYDVQQDEyBBbnRocm9waWMgQ2xhdWRlIENvbnRlbnQgU2lnbmluZzBZMBMGByqGSM49AgEGCCqGSM49AwEHA0IABJh6CmvLUBgFFNU0vUKlOVtE6djd17L5SuwX0LemFisBM3dkd/3cyjxFA3Qo5S46fX0/ihY0VZ7mfb9KF703t5OjWDBWMA4GA1UdDwEB/wQEAwIHgDAVBgNVHSUEDjAMBgorBgEEAYPoXgIBMAwGA1UdEwEB/wQCMAAwHwYDVR0jBBgwFoAUzlHiBIFOZFsj+OPEz5o+nMHXXMIwCgYIKoZIzj0EAwMDZwAwZAIwMXMdFJ4BetLLVY7ORuE9noqbbAZOZn/aArXyTwFAZfKrPzxF2vPoJNf1+UCdg1XGAjBwX1zd9WGqYkqmL5SFqw1QySjr1zJfpJM9+1rdDwSPLMOPOjKuiXjoU/pUUeG9RwmhY3BhZFkNngAAAAAAAAAAAAAAAAAAAAAAAAAAAAAAAAAAAAAAAAAAAAAAAAAAAAAAAAAAAAAAAAAAAAAAAAAAAAAAAAAAAAAAAAAAAAAAAAAAAAAAAAAAAAAAAAAAAAAAAAAAAAAAAAAAAAAAAAAAAAAAAAAAAAAAAAAAAAAAAAAAAAAAAAAAAAAAAAAAAAAAAAAAAAAAAAAAAAAAAAAAAAAAAAAAAAAAAAAAAAAAAAAAAAAAAAAAAAAAAAAAAAAAAAAAAAAAAAAAAAAAAAAAAAAAAAAAAAAAAAAAAAAAAAAAAAAAAAAAAAAAAAAAAAAAAAAAAAAAAAAAAAAAAAAAAAAAAAAAAAAAAAAAAAAAAAAAAAAAAAAAAAAAAAAAAAAAAAAAAAAAAAAAAAAAAAAAAAAAAAAAAAAAAAAAAAAAAAAAAAAAAAAAAAAAAAAAAAAAAAAAAAAAAAAAAAAAAAAAAAAAAAAAAAAAAAAAAAAAAAAAAAAAAAAAAAAAAAAAAAAAAAAAAAAAAAAAAAAAAAAAAAAAAAAAAAAAAAAAAAAAAAAAAAAAAAAAAAAAAAAAAAAAAAAAAAAAAAAAAAAAAAAAAAAAAAAAAAAAAAAAAAAAAAAAAAAAAAAAAAAAAAAAAAAAAAAAAAAAAAAAAAAAAAAAAAAAAAAAAAAAAAAAAAAAAAAAAAAAAAAAAAAAAAAAAAAAAAAAAAAAAAAAAAAAAAAAAAAAAAAAAAAAAAAAAAAAAAAAAAAAAAAAAAAAAAAAAAAAAAAAAAAAAAAAAAAAAAAAAAAAAAAAAAAAAAAAAAAAAAAAAAAAAAAAAAAAAAAAAAAAAAAAAAAAAAAAAAAAAAAAAAAAAAAAAAAAAAAAAAAAAAAAAAAAAAAAAAAAAAAAAAAAAAAAAAAAAAAAAAAAAAAAAAAAAAAAAAAAAAAAAAAAAAAAAAAAAAAAAAAAAAAAAAAAAAAAAAAAAAAAAAAAAAAAAAAAAAAAAAAAAAAAAAAAAAAAAAAAAAAAAAAAAAAAAAAAAAAAAAAAAAAAAAAAAAAAAAAAAAAAAAAAAAAAAAAAAAAAAAAAAAAAAAAAAAAAAAAAAAAAAAAAAAAAAAAAAAAAAAAAAAAAAAAAAAAAAAAAAAAAAAAAAAAAAAAAAAAAAAAAAAAAAAAAAAAAAAAAAAAAAAAAAAAAAAAAAAAAAAAAAAAAAAAAAAAAAAAAAAAAAAAAAAAAAAAAAAAAAAAAAAAAAAAAAAAAAAAAAAAAAAAAAAAAAAAAAAAAAAAAAAAAAAAAAAAAAAAAAAAAAAAAAAAAAAAAAAAAAAAAAAAAAAAAAAAAAAAAAAAAAAAAAAAAAAAAAAAAAAAAAAAAAAAAAAAAAAAAAAAAAAAAAAAAAAAAAAAAAAAAAAAAAAAAAAAAAAAAAAAAAAAAAAAAAAAAAAAAAAAAAAAAAAAAAAAAAAAAAAAAAAAAAAAAAAAAAAAAAAAAAAAAAAAAAAAAAAAAAAAAAAAAAAAAAAAAAAAAAAAAAAAAAAAAAAAAAAAAAAAAAAAAAAAAAAAAAAAAAAAAAAAAAAAAAAAAAAAAAAAAAAAAAAAAAAAAAAAAAAAAAAAAAAAAAAAAAAAAAAAAAAAAAAAAAAAAAAAAAAAAAAAAAAAAAAAAAAAAAAAAAAAAAAAAAAAAAAAAAAAAAAAAAAAAAAAAAAAAAAAAAAAAAAAAAAAAAAAAAAAAAAAAAAAAAAAAAAAAAAAAAAAAAAAAAAAAAAAAAAAAAAAAAAAAAAAAAAAAAAAAAAAAAAAAAAAAAAAAAAAAAAAAAAAAAAAAAAAAAAAAAAAAAAAAAAAAAAAAAAAAAAAAAAAAAAAAAAAAAAAAAAAAAAAAAAAAAAAAAAAAAAAAAAAAAAAAAAAAAAAAAAAAAAAAAAAAAAAAAAAAAAAAAAAAAAAAAAAAAAAAAAAAAAAAAAAAAAAAAAAAAAAAAAAAAAAAAAAAAAAAAAAAAAAAAAAAAAAAAAAAAAAAAAAAAAAAAAAAAAAAAAAAAAAAAAAAAAAAAAAAAAAAAAAAAAAAAAAAAAAAAAAAAAAAAAAAAAAAAAAAAAAAAAAAAAAAAAAAAAAAAAAAAAAAAAAAAAAAAAAAAAAAAAAAAAAAAAAAAAAAAAAAAAAAAAAAAAAAAAAAAAAAAAAAAAAAAAAAAAAAAAAAAAAAAAAAAAAAAAAAAAAAAAAAAAAAAAAAAAAAAAAAAAAAAAAAAAAAAAAAAAAAAAAAAAAAAAAAAAAAAAAAAAAAAAAAAAAAAAAAAAAAAAAAAAAAAAAAAAAAAAAAAAAAAAAAAAAAAAAAAAAAAAAAAAAAAAAAAAAAAAAAAAAAAAAAAAAAAAAAAAAAAAAAAAAAAAAAAAAAAAAAAAAAAAAAAAAAAAAAAAAAAAAAAAAAAAAAAAAAAAAAAAAAAAAAAAAAAAAAAAAAAAAAAAAAAAAAAAAAAAAAAAAAAAAAAAAAAAAAAAAAAAAAAAAAAAAAAAAAAAAAAAAAAAAAAAAAAAAAAAAAAAAAAAAAAAAAAAAAAAAAAAAAAAAAAAAAAAAAAAAAAAAAAAAAAAAAAAAAAAAAAAAAAAAAAAAAAAAAAAAAAAAAAAAAAAAAAAAAAAAAAAAAAAAAAAAAAAAAAAAAAAAAAAAAAAAAAAAAAAAAAAAAAAAAAAAAAAAAAAAAAAAAAAAAAAAAAAAAAAAAAAAAAAAAAAAAAAAAAAAAAAAAAAAAAAAAAAAAAAAAAAAAAAAAAAAAAAAAAAAAAAAAAAAAAAAAAAAAAAAAAAAAAAAAAAAAAAAAAAAAAAAAAAAAAAAAAAAAAAAAAAAAAAAAAAAAAAAAAAAAAAAAAAAAAAAAAAAAAAAAAAAAAAAAAAAAAAAAAAAAAAAAAAAAAAAAAAAAAAAAAAAAAAAAAAAAAAAAAAAAAAAAAAAAAAAAAAAAAAAAAAAAAAAAAAAAAAAAAAAAAAAAAAAAAAAAAAAAAAAAAAAAAAAAAAAAAAAAAAAAAAAAAAAAAAAAAAAAAAAAAAAAAAAAAAAAAAAAAAAAAAAAAAAAAAAAAAAAAAAAAAAAAAAAAAAAAAAAAAAAAAAAAAAAAAAAAAAAAAAAAAAAAAAAAAAAAAAAAAAAAAAAAAAAAAAAAAAAAAAAAAAAAAAAAAAAAAAAAAAAAAAAAAAAAAAAAAAAAAAAAAAAAAAAAAAAAAAAAAAAAAAAAAAAAAAAAAAAAAAAAAAAAAAAAAAAAAAAAAAAAAAAAAAAAAAAAAAAAAAAAAAAAAAAAAAAAAAAAAAAAAAAAAAAAAAAAAAAAAAAAAAAAAAAAAAAAAAAAAAAAAAAAAAAAAAAAAAAAAAAAAAAAAAAAAAAAAAAAAAAAAAAAAAAAAAAAAAAAAAAAAAAAAAAAAAAAAAAAAAAAAAAAAAAAAAAAAAAAAAAAAAAAAAAAAAAAAAAAAAAAAAAAAAAAAAAAAAAAAAAAAAAAAAAAAAAAAAAAAAAAAAAAAAAAAAAAAAAAAAAAAAAAAAAAAAAAAAAAAAAAAAAAAAAAAAAAAAAAAAAAAAAAAAAAAAAAAAAAAAAAAAAAAAAAAAAAAAAAAAAAAAAAAAAAAAAAAAAAAAAAAAAAAAAAAAAAAAAAAAAAAAAAAAAAAAAAAAAAAAAAAAAAAAAAAAAAAAAAAAAAAAAAAAAAAAAAAAAAAAAAAAAAAAAAAAAAAAAAAAAAAAAAAAAAAAAAAAAAAAAAAAAAAAAAAAAAAAAAAAAAAAAAAAAAAAAAAAAAAAAAAAAAAAAAAAAAAAAAAAAAAAAAAAAAAAAAAAAAAAAAAAAAAAAAAAAAAAAAAAAAAAAAAAAAAAAAAAAAAAAAAAAAAAAAAAAAAAAAAAAAAAAAAAAAAAAAAAAAAAAAAAAAAAAAAAAAAAAAAAAAAAAAAAAAAAAAAAAAAAAAAAAAAAAAAAAAAAAAAAAAAAAAAAAAAAAAAAAAAAAAAAAAAAAAAAAAAAAAAAAAAAAAAAAAAAAAAAAAAAAAAAAAAAAAAAAAAAAAAAAAAAAAAAAAAAAAAAAAAAAAAAAAAAAAAAAAAAAAAAAAAAAAAAAAAAAAAAAAAAAAAAAAAAAAAAAAAAAAAAAAAAAAAAAAAAAAAAAAAAAAAAAAAAAAAAAAAAAAAAAAAAAAAAAAAAAAAAAAAAAAAAAAAAAAAAAAAAAAAAAAAAAAAAAAAAAAAAAAAAAAAAAAAAAAAAAAAAAAAAAAAAAAAAAAAAAAAAAAAAAAAAAAAAAAAAAAAAAAAAAAAAAAAAAAAAAAAAAAAAAAAAAAAAAAAAAAAAAAAAAAAAAAAAAAAAAAAAAAAAAAAAAAAAAAAAAAAAAAAAAAAAAAAAAAAAAAAAAAAAAAAAAAAAAAAAAAAAAAAAAAAAAAAAAAAAAAAAAAAAAAAAAAAAAAAAAAAAAAAAAAAAAAAAAAAAAAAAAAAAAAAAAAAAAAAAAAAAAAAAAAAAAAAAAAAAAAAAAAAAAAAAAAAAAAAAAAAAAAAAAAAAAAAAAAAAAAAAAAAAAAAAAAAAAAAAAAAAAAAAAAAAAAAAAAAAAAAAAAAAAAAAAAAAAAAAAAAAAAAAAAAAAAAAAAAAAAAAAAAAAAAAAAAAAAAAAAAAAAAAAAAAAAAAAAAAAAAAAAAAAAAAAAAAAAAAAAAAAAAAAAPZYQL/+HuuaTmOJxa433pGpHltwJHM82+A69y7btWnkc+kOCkc64GJKQ4vfIwhIHcBv23Ed4LDLvvKMdbc2n85zmOo=</c2pa:manifest></metadata><defs><filter id="sh" x="-10%" y="-10%" width="130%" height="140%"><feDropShadow dx="0" dy="1.5" stdDeviation="2.2" flood-color="#1f2328" flood-opacity="0.13"/></filter></defs><rect x="110.0" y="40.0" width="105.0" height="530.0" rx="0" fill="#f3f4f6" stroke="none" stroke-width="1.2" opacity="1"/><text x="162.5" y="19.4" font-size="9.6" font-weight="600" fill="#1f2328" text-anchor="middle"><tspan x="162.5" dy="0.0">sístole</tspan><tspan x="162.5" dy="12.0">atrial</tspan></text><rect x="215.0" y="40.0" width="28.0" height="530.0" rx="0" fill="#fde8eb" stroke="none" stroke-width="1.2" opacity="1"/><text x="229.0" y="19.4" font-size="9.6" font-weight="600" fill="#1f2328" text-anchor="middle"><tspan x="229.0" dy="0.0">contração</tspan><tspan x="229.0" dy="12.0">isovolum.</tspan></text><rect x="243.0" y="40.0" width="182.0" height="530.0" rx="0" fill="#fff5f6" stroke="none" stroke-width="1.2" opacity="1"/><text x="334.0" y="25.4" font-size="9.6" font-weight="600" fill="#1f2328" text-anchor="middle"><tspan x="334.0" dy="0.0">ejeção</tspan></text><rect x="425.0" y="40.0" width="56.0" height="530.0" rx="0" fill="#e6eefb" stroke="none" stroke-width="1.2" opacity="1"/><text x="453.0" y="19.4" font-size="9.6" font-weight="600" fill="#1f2328" text-anchor="middle"><tspan x="453.0" dy="0.0">relaxam.</tspan><tspan x="453.0" dy="12.0">isovolum.</tspan></text><rect x="481.0" y="40.0" width="70.0" height="530.0" rx="0" fill="#f4f8fe" stroke="none" stroke-width="1.2" opacity="1"/><text x="516.0" y="19.4" font-size="9.6" font-weight="600" fill="#1f2328" text-anchor="middle"><tspan x="516.0" dy="0.0">enchimento</tspan><tspan x="516.0" dy="12.0">rápido</tspan></text><rect x="551.0" y="40.0" width="119.0" height="530.0" rx="0" fill="#fbfbfc" stroke="none" stroke-width="1.2" opacity="1"/><text x="610.5" y="25.4" font-size="9.6" font-weight="600" fill="#1f2328" text-anchor="middle"><tspan x="610.5" dy="0.0">diástase</tspan></text><path d="M215.0,40.0 L215.0,570.0" fill="none" stroke="#9aa1ab" stroke-width="1" stroke-linecap="round" stroke-linejoin="round" opacity="1" stroke-dasharray="4 3"/><path d="M243.0,40.0 L243.0,570.0" fill="none" stroke="#9aa1ab" stroke-width="1" stroke-linecap="round" stroke-linejoin="round" opacity="1" stroke-dasharray="4 3"/><path d="M425.0,40.0 L425.0,570.0" fill="none" stroke="#9aa1ab" stroke-width="1" stroke-linecap="round" stroke-linejoin="round" opacity="1" stroke-dasharray="4 3"/><path d="M481.0,40.0 L481.0,570.0" fill="none" stroke="#9aa1ab" stroke-width="1" stroke-linecap="round" stroke-linejoin="round" opacity="1" stroke-dasharray="4 3"/><text x="320.0" y="588.0" font-size="10.5" font-weight="800" fill="#b42336" text-anchor="middle"><tspan x="320.0" dy="0.0">SÍSTOLE</tspan></text><text x="558.0" y="588.0" font-size="10.5" font-weight="800" fill="#2458b3" text-anchor="middle"><tspan x="558.0" dy="0.0">DIÁSTOLE</tspan></text><text x="102.0" y="303.5" font-size="10" font-weight="400" fill="#6b7280" text-anchor="end"><tspan x="102.0" dy="0.0">0</tspan></text><text x="102.0" y="226.6" font-size="10" font-weight="400" fill="#6b7280" text-anchor="end"><tspan x="102.0" dy="0.0">40</tspan></text><text x="102.0" y="149.7" font-size="10" font-weight="400" fill="#6b7280" text-anchor="end"><tspan x="102.0" dy="0.0">80</tspan></text><text x="102.0" y="72.7" font-size="10" font-weight="400" fill="#6b7280" text-anchor="end"><tspan x="102.0" dy="0.0">120</tspan></text><text x="66.0" y="175.0" font-size="11" font-weight="400" fill="#6b7280" text-anchor="middle" transform="rotate(-90 66.0 175.0)"><tspan x="66.0" dy="0.0">pressão (mmHg)</tspan></text><path d="M110.0,138.5 L111.4,138.5 L112.8,138.6 L114.2,138.7 L115.6,138.8 L117.0,138.9 L118.4,138.9 L119.8,139.0 L121.2,139.1 L122.6,139.2 L124.0,139.3 L125.4,139.4 L126.8,139.4 L128.2,139.5 L129.6,139.6 L131.0,139.7 L132.4,139.8 L133.8,139.8 L135.2,139.9 L136.6,140.0 L138.0,140.1 L139.4,140.2 L140.8,140.2 L142.2,140.3 L143.6,140.4 L145.0,140.5 L146.4,140.6 L147.8,140.6 L149.2,140.7 L150.6,140.8 L152.0,140.9 L153.4,141.0 L154.8,141.1 L156.2,141.1 L157.6,141.2 L159.0,141.3 L160.4,141.4 L161.8,141.5 L163.2,141.5 L164.6,141.6 L166.0,141.7 L167.4,141.8 L168.8,141.9 L170.2,141.9 L171.6,142.0 L173.0,142.1 L174.4,142.2 L175.8,142.3 L177.2,142.3 L178.6,142.4 L180.0,142.5 L181.4,142.6 L182.8,142.7 L184.2,142.8 L185.6,142.8 L187.0,142.9 L188.4,143.0 L189.8,143.1 L191.2,143.2 L192.6,143.2 L194.0,143.3 L195.4,143.4 L196.8,143.5 L198.2,143.6 L199.6,143.6 L201.0,143.7 L202.4,143.8 L203.8,143.9 L205.2,144.0 L206.6,144.0 L208.0,144.1 L209.4,144.2 L210.8,144.3 L212.2,144.4 L213.6,144.5 L215.0,144.5 L216.4,144.6 L217.8,144.7 L219.2,144.8 L220.6,144.9 L222.0,144.9 L223.4,145.0 L224.8,145.1 L226.2,145.2 L227.6,145.3 L229.0,145.3 L230.4,145.4 L231.8,145.5 L233.2,145.6 L234.6,145.7 L236.0,145.7 L237.4,145.8 L238.8,145.9 L240.2,146.0 L241.6,146.1 L243.0,143.3 L244.4,138.0 L245.8,134.4 L247.2,131.3 L248.6,128.4 L250.0,125.8 L251.4,123.3 L252.8,120.9 L254.2,118.6 L255.6,116.4 L257.0,114.3 L258.4,112.2 L259.8,110.3 L261.2,108.4 L262.6,106.5 L264.0,104.7 L265.4,103.0 L266.8,101.3 L268.2,99.7 L269.6,98.1 L271.0,96.5 L272.4,95.0 L273.8,93.5 L275.2,92.1 L276.6,90.8 L278.0,89.4 L279.4,88.1 L280.8,86.9 L282.2,85.6 L283.6,84.4 L285.0,83.3 L286.4,82.2 L287.8,81.1 L289.2,80.1 L290.6,79.1 L292.0,78.1 L293.4,77.1 L294.8,76.2 L296.2,75.3 L297.6,74.5 L299.0,73.7 L300.4,72.9 L301.8,72.1 L303.2,71.4 L304.6,70.7 L306.0,70.1 L307.4,69.4 L308.8,68.8 L310.2,68.3 L311.6,67.7 L313.0,67.2 L314.4,66.7 L315.8,66.3 L317.2,65.8 L318.6,65.4 L320.0,65.1 L321.4,64.7 L322.8,64.4 L324.2,64.1 L325.6,63.8 L327.0,63.6 L328.4,63.4 L329.8,63.2 L331.2,63.0 L332.6,62.9 L334.0,62.7 L335.4,62.6 L336.8,62.6 L338.2,62.5 L339.6,62.5 L341.0,62.5 L342.4,62.5 L343.8,62.6 L345.2,62.6 L346.6,62.7 L348.0,62.8 L349.4,63.0 L350.8,63.1 L352.2,63.3 L353.6,63.5 L355.0,63.7 L356.4,64.0 L357.8,64.2 L359.2,64.5 L360.6,64.8 L362.0,65.1 L363.4,65.5 L364.8,65.8 L366.2,66.2 L367.6,66.6 L369.0,67.0 L370.4,67.5 L371.8,67.9 L373.2,68.4 L374.6,68.9 L376.0,69.4 L377.4,69.9 L378.8,70.4 L380.2,71.0 L381.6,71.6 L383.0,72.1 L384.4,72.7 L385.8,73.4 L387.2,74.0 L388.6,74.6 L390.0,75.3 L391.4,76.0 L392.8,76.7 L394.2,77.4 L395.6,78.1 L397.0,78.8 L398.4,79.5 L399.8,80.3 L401.2,81.1 L402.6,81.8 L404.0,82.6 L405.4,83.4 L406.8,84.3 L408.2,85.1 L409.6,85.9 L411.0,86.8 L412.4,87.6 L413.8,88.5 L415.2,89.4 L416.6,90.3 L418.0,91.2 L419.4,92.1 L420.8,93.0 L422.2,93.9 L423.6,94.9 L425.0,95.8 L426.4,97.3 L427.8,98.8 L429.2,100.2 L430.6,101.4 L432.0,102.6 L433.4,103.6 L434.8,104.4 L436.2,104.9 L437.6,105.3 L439.0,97.7 L440.4,97.7 L441.8,97.5 L443.2,97.3 L444.6,97.0 L446.0,96.6 L447.4,96.1 L448.8,95.6 L450.2,95.1 L451.6,94.5 L453.0,93.9 L454.4,94.2 L455.8,94.4 L457.2,94.7 L458.6,95.0 L460.0,95.3 L461.4,95.6 L462.8,95.9 L464.2,96.2 L465.6,96.5 L467.0,96.7 L468.4,97.0 L469.8,97.3 L471.2,97.6 L472.6,97.9 L474.0,98.2 L475.4,98.5 L476.8,98.8 L478.2,99.0 L479.6,99.3 L481.0,99.6 L482.4,99.9 L483.8,100.2 L485.2,100.5 L486.6,100.8 L488.0,101.1 L489.4,101.4 L490.8,101.6 L492.2,101.9 L493.6,102.2 L495.0,102.5 L496.4,102.8 L497.8,103.1 L499.2,103.4 L500.6,103.7 L502.0,103.9 L503.4,104.2 L504.8,104.5 L506.2,104.8 L507.6,105.1 L509.0,105.4 L510.4,105.7 L511.8,106.0 L513.2,106.2 L514.6,106.5 L516.0,106.8 L517.4,107.1 L518.8,107.4 L520.2,107.7 L521.6,108.0 L523.0,108.3 L524.4,108.5 L525.8,108.8 L527.2,109.1 L528.6,109.4 L530.0,109.7 L531.4,110.0 L532.8,110.3 L534.2,110.6 L535.6,110.8 L537.0,111.1 L538.4,111.4 L539.8,111.7 L541.2,112.0 L542.6,112.3 L544.0,112.6 L545.4,112.9 L546.8,113.1 L548.2,113.4 L549.6,113.7 L551.0,114.0 L552.4,114.3 L553.8,114.6 L555.2,114.9 L556.6,115.2 L558.0,115.4 L559.4,115.7 L560.8,116.0 L562.2,116.3 L563.6,116.6 L565.0,116.9 L566.4,117.2 L567.8,117.5 L569.2,117.7 L570.6,118.0 L572.0,118.3 L573.4,118.6 L574.8,118.9 L576.2,119.2 L577.6,119.5 L579.0,119.8 L580.4,120.1 L581.8,120.3 L583.2,120.6 L584.6,120.9 L586.0,121.2 L587.4,121.5 L588.8,121.8 L590.2,122.1 L591.6,122.4 L593.0,122.6 L594.4,122.9 L595.8,123.2 L597.2,123.5 L598.6,123.8 L600.0,124.1 L601.4,124.4 L602.8,124.7 L604.2,124.9 L605.6,125.2 L607.0,125.5 L608.4,125.8 L609.8,126.1 L611.2,126.4 L612.6,126.7 L614.0,127.0 L615.4,127.2 L616.8,127.5 L618.2,127.8 L619.6,128.1 L621.0,128.4 L622.4,128.7 L623.8,129.0 L625.2,129.3 L626.6,129.5 L628.0,129.8 L629.4,130.1 L630.8,130.4 L632.2,130.7 L633.6,131.0 L635.0,131.3 L636.4,131.6 L637.8,131.8 L639.2,132.1 L640.6,132.4 L642.0,132.7 L643.4,133.0 L644.8,133.3 L646.2,133.6 L647.6,133.9 L649.0,134.1 L650.4,134.4 L651.8,134.7 L653.2,135.0 L654.6,135.3 L656.0,135.6 L657.4,135.9 L658.8,136.2 L660.2,136.4 L661.6,136.7 L663.0,137.0 L664.4,137.3 L665.8,137.6 L667.2,137.9 L668.6,138.2 L670.0,138.5" fill="none" stroke="#b42336" stroke-width="2.6" stroke-linecap="round" stroke-linejoin="round" opacity="1"/><path d="M110.0,295.4 L111.4,295.3 L112.8,295.3 L114.2,295.3 L115.6,295.3 L117.0,295.2 L118.4,295.1 L119.8,295.1 L121.2,295.0 L122.6,294.8 L124.0,294.6 L125.4,294.4 L126.8,294.2 L128.2,293.9 L129.6,293.5 L131.0,293.1 L132.4,292.6 L133.8,292.1 L135.2,291.6 L136.6,291.0 L138.0,290.3 L139.4,289.7 L140.8,289.0 L142.2,288.4 L143.6,287.7 L145.0,287.2 L146.4,286.7 L147.8,286.3 L149.2,286.0 L150.6,285.8 L152.0,285.8 L153.4,285.8 L154.8,286.0 L156.2,286.3 L157.6,286.7 L159.0,287.2 L160.4,287.7 L161.8,288.4 L163.2,289.0 L164.6,289.7 L166.0,290.3 L167.4,291.0 L168.8,291.6 L170.2,292.1 L171.6,292.6 L173.0,293.1 L174.4,293.5 L175.8,293.9 L177.2,294.2 L178.6,294.4 L180.0,294.6 L181.4,294.8 L182.8,295.0 L184.2,295.1 L185.6,295.1 L187.0,295.2 L188.4,295.3 L189.8,295.3 L191.2,295.3 L192.6,295.3 L194.0,295.4 L195.4,295.4 L196.8,295.4 L198.2,295.4 L199.6,295.4 L201.0,295.4 L202.4,295.4 L203.8,295.4 L205.2,295.3 L206.6,295.3 L208.0,295.3 L209.4,295.2 L210.8,295.1 L212.2,294.9 L213.6,294.7 L215.0,294.4 L216.4,293.3 L217.8,290.3 L219.2,285.4 L220.6,279.0 L222.0,271.2 L223.4,262.4 L224.8,252.6 L226.2,242.2 L227.6,231.4 L229.0,220.3 L230.4,209.2 L231.8,198.3 L233.2,187.9 L234.6,178.2 L236.0,169.3 L237.4,161.6 L238.8,155.2 L240.2,150.3 L241.6,147.2 L243.0,146.2 L244.4,140.9 L245.8,137.3 L247.2,134.2 L248.6,131.3 L250.0,128.7 L251.4,126.2 L252.8,123.8 L254.2,121.5 L255.6,119.3 L257.0,117.2 L258.4,115.1 L259.8,113.2 L261.2,111.2 L262.6,109.4 L264.0,107.6 L265.4,105.9 L266.8,104.2 L268.2,102.5 L269.6,100.9 L271.0,99.4 L272.4,97.9 L273.8,96.4 L275.2,95.0 L276.6,93.6 L278.0,92.3 L279.4,91.0 L280.8,89.7 L282.2,88.5 L283.6,87.3 L285.0,86.2 L286.4,85.1 L287.8,84.0 L289.2,82.9 L290.6,81.9 L292.0,81.0 L293.4,80.0 L294.8,79.1 L296.2,78.2 L297.6,77.4 L299.0,76.6 L300.4,75.8 L301.8,75.0 L303.2,74.3 L304.6,73.6 L306.0,73.0 L307.4,72.3 L308.8,71.7 L310.2,71.2 L311.6,70.6 L313.0,70.1 L314.4,69.6 L315.8,69.2 L317.2,68.7 L318.6,68.3 L320.0,67.9 L321.4,67.6 L322.8,67.3 L324.2,67.0 L325.6,66.7 L327.0,66.5 L328.4,66.2 L329.8,66.0 L331.2,65.9 L332.6,65.7 L334.0,65.6 L335.4,65.5 L336.8,65.5 L338.2,65.4 L339.6,65.4 L341.0,65.4 L342.4,65.4 L343.8,65.5 L345.2,65.5 L346.6,65.6 L348.0,65.7 L349.4,65.9 L350.8,66.0 L352.2,66.2 L353.6,66.4 L355.0,66.6 L356.4,66.9 L357.8,67.1 L359.2,67.4 L360.6,67.7 L362.0,68.0 L363.4,68.4 L364.8,68.7 L366.2,69.1 L367.6,69.5 L369.0,69.9 L370.4,70.4 L371.8,70.8 L373.2,71.3 L374.6,71.8 L376.0,72.3 L377.4,72.8 L378.8,73.3 L380.2,73.9 L381.6,74.4 L383.0,75.0 L384.4,75.6 L385.8,76.2 L387.2,76.9 L388.6,77.5 L390.0,78.2 L391.4,78.8 L392.8,79.5 L394.2,80.2 L395.6,81.0 L397.0,81.7 L398.4,82.4 L399.8,83.2 L401.2,83.9 L402.6,84.7 L404.0,85.5 L405.4,86.3 L406.8,87.1 L408.2,88.0 L409.6,88.8 L411.0,89.7 L412.4,90.5 L413.8,91.4 L415.2,92.3 L416.6,93.1 L418.0,94.0 L419.4,95.0 L420.8,95.9 L422.2,96.8 L423.6,97.7 L425.0,98.7 L426.4,99.0 L427.8,100.1 L429.2,101.8 L430.6,104.2 L432.0,107.1 L433.4,110.6 L434.8,114.5 L436.2,119.0 L437.6,123.9 L439.0,129.2 L440.4,134.9 L441.8,140.9 L443.2,147.2 L444.6,153.8 L446.0,160.6 L447.4,167.5 L448.8,174.6 L450.2,181.8 L451.6,189.1 L453.0,196.5 L454.4,203.8 L455.8,211.1 L457.2,218.3 L458.6,225.4 L460.0,232.4 L461.4,239.1 L462.8,245.7 L464.2,252.0 L465.6,258.0 L467.0,263.7 L468.4,269.0 L469.8,273.9 L471.2,278.4 L472.6,282.4 L474.0,285.8 L475.4,288.8 L476.8,291.1 L478.2,292.8 L479.6,293.9 L481.0,294.2 L482.4,294.2 L483.8,294.2 L485.2,294.2 L486.6,294.2 L488.0,294.2 L489.4,294.2 L490.8,294.2 L492.2,294.2 L493.6,294.2 L495.0,294.2 L496.4,294.2 L497.8,294.1 L499.2,294.1 L500.6,294.1 L502.0,294.1 L503.4,294.1 L504.8,294.1 L506.2,294.0 L507.6,294.0 L509.0,294.0 L510.4,294.0 L511.8,294.0 L513.2,293.9 L514.6,293.9 L516.0,293.9 L517.4,293.9 L518.8,293.8 L520.2,293.8 L521.6,293.8 L523.0,293.7 L524.4,293.7 L525.8,293.7 L527.2,293.7 L528.6,293.6 L530.0,293.6 L531.4,293.6 L532.8,293.5 L534.2,293.5 L535.6,293.5 L537.0,293.4 L538.4,293.4 L539.8,293.3 L541.2,293.3 L542.6,293.3 L544.0,293.2 L545.4,293.2 L546.8,293.2 L548.2,293.1 L549.6,293.1 L551.0,293.0 L552.4,293.0 L553.8,293.0 L555.2,292.9 L556.6,292.9 L558.0,292.8 L559.4,292.8 L560.8,292.8 L562.2,292.7 L563.6,292.7 L565.0,292.6 L566.4,292.6 L567.8,292.5 L569.2,292.5 L570.6,292.5 L572.0,292.4 L573.4,292.4 L574.8,292.3 L576.2,292.3 L577.6,292.2 L579.0,292.2 L580.4,292.2 L581.8,292.1 L583.2,292.1 L584.6,292.0 L586.0,292.0 L587.4,291.9 L588.8,291.9 L590.2,291.9 L591.6,291.8 L593.0,291.8 L594.4,291.7 L595.8,291.7 L597.2,291.7 L598.6,291.6 L600.0,291.6 L601.4,291.5 L602.8,291.5 L604.2,291.5 L605.6,291.4 L607.0,291.4 L608.4,291.3 L609.8,291.3 L611.2,291.3 L612.6,291.2 L614.0,291.2 L615.4,291.2 L616.8,291.1 L618.2,291.1 L619.6,291.1 L621.0,291.0 L622.4,291.0 L623.8,291.0 L625.2,290.9 L626.6,290.9 L628.0,290.9 L629.4,290.8 L630.8,290.8 L632.2,290.8 L633.6,290.8 L635.0,290.7 L636.4,290.7 L637.8,290.7 L639.2,290.7 L640.6,290.6 L642.0,290.6 L643.4,290.6 L644.8,290.6 L646.2,290.6 L647.6,290.5 L649.0,290.5 L650.4,290.5 L651.8,290.5 L653.2,290.5 L654.6,290.5 L656.0,290.4 L657.4,290.4 L658.8,290.4 L660.2,290.4 L661.6,290.4 L663.0,290.4 L664.4,290.4 L665.8,290.4 L667.2,290.4 L668.6,290.4 L670.0,290.4" fill="none" stroke="#2458b3" stroke-width="2.6" stroke-linecap="round" stroke-linejoin="round" opacity="1"/><path d="M110.0,294.2 L111.4,294.2 L112.8,294.2 L114.2,294.1 L115.6,294.1 L117.0,294.1 L118.4,294.0 L119.8,293.9 L121.2,293.8 L122.6,293.7 L124.0,293.5 L125.4,293.3 L126.8,293.0 L128.2,292.7 L129.6,292.4 L131.0,292.0 L132.4,291.5 L133.8,291.0 L135.2,290.4 L136.6,289.8 L138.0,289.2 L139.4,288.5 L140.8,287.8 L142.2,287.2 L143.6,286.6 L145.0,286.0 L146.4,285.6 L147.8,285.2 L149.2,284.9 L150.6,284.7 L152.0,284.6 L153.4,284.7 L154.8,284.9 L156.2,285.2 L157.6,285.6 L159.0,286.0 L160.4,286.6 L161.8,287.2 L163.2,287.8 L164.6,288.5 L166.0,289.2 L167.4,289.8 L168.8,290.4 L170.2,291.0 L171.6,291.5 L173.0,292.0 L174.4,292.4 L175.8,292.7 L177.2,293.0 L178.6,293.3 L180.0,293.5 L181.4,293.7 L182.8,293.8 L184.2,293.9 L185.6,294.0 L187.0,294.1 L188.4,294.1 L189.8,294.1 L191.2,294.2 L192.6,294.2 L194.0,294.2 L195.4,294.2 L196.8,294.2 L198.2,294.2 L199.6,294.2 L201.0,294.2 L202.4,294.2 L203.8,294.2 L205.2,294.2 L206.6,294.2 L208.0,294.1 L209.4,294.1 L210.8,293.9 L212.2,293.8 L213.6,293.6 L215.0,293.3 L216.4,292.9 L217.8,292.4 L219.2,291.8 L220.6,291.2 L222.0,290.5 L223.4,289.9 L224.8,289.3 L226.2,288.9 L227.6,288.6 L229.0,288.5 L230.4,288.6 L231.8,288.9 L233.2,289.3 L234.6,289.9 L236.0,290.5 L237.4,291.2 L238.8,291.8 L240.2,292.4 L241.6,292.9 L243.0,293.3 L244.4,293.6 L245.8,293.8 L247.2,293.9 L248.6,294.1 L250.0,294.1 L251.4,294.2 L252.8,294.2 L254.2,294.2 L255.6,294.2 L257.0,294.2 L258.4,294.2 L259.8,294.2 L261.2,294.2 L262.6,294.2 L264.0,294.2 L265.4,294.2 L266.8,294.2 L268.2,294.2 L269.6,294.2 L271.0,294.2 L272.4,294.2 L273.8,294.2 L275.2,294.2 L276.6,294.2 L278.0,294.1 L279.4,294.1 L280.8,294.1 L282.2,294.1 L283.6,294.1 L285.0,294.1 L286.4,294.0 L287.8,294.0 L289.2,294.0 L290.6,294.0 L292.0,293.9 L293.4,293.9 L294.8,293.9 L296.2,293.8 L297.6,293.8 L299.0,293.8 L300.4,293.7 L301.8,293.7 L303.2,293.7 L304.6,293.6 L306.0,293.6 L307.4,293.5 L308.8,293.5 L310.2,293.5 L311.6,293.4 L313.0,293.4 L314.4,293.3 L315.8,293.3 L317.2,293.2 L318.6,293.2 L320.0,293.1 L321.4,293.1 L322.8,293.0 L324.2,293.0 L325.6,293.0 L327.0,292.9 L328.4,292.9 L329.8,292.8 L331.2,292.7 L332.6,292.7 L334.0,292.6 L335.4,292.6 L336.8,292.5 L338.2,292.5 L339.6,292.4 L341.0,292.4 L342.4,292.3 L343.8,292.3 L345.2,292.2 L346.6,292.2 L348.0,292.1 L349.4,292.0 L350.8,292.0 L352.2,291.9 L353.6,291.9 L355.0,291.8 L356.4,291.8 L357.8,291.7 L359.2,291.7 L360.6,291.6 L362.0,291.5 L363.4,291.5 L364.8,291.4 L366.2,291.4 L367.6,291.3 L369.0,291.3 L370.4,291.2 L371.8,291.2 L373.2,291.1 L374.6,291.1 L376.0,291.0 L377.4,290.9 L378.8,290.9 L380.2,290.8 L381.6,290.8 L383.0,290.7 L384.4,290.7 L385.8,290.6 L387.2,290.5 L388.6,290.5 L390.0,290.4 L391.4,290.4 L392.8,290.3 L394.2,290.2 L395.6,290.1 L397.0,290.1 L398.4,290.0 L399.8,289.9 L401.2,289.8 L402.6,289.7 L404.0,289.6 L405.4,289.5 L406.8,289.4 L408.2,289.3 L409.6,289.1 L411.0,289.0 L412.4,288.8 L413.8,288.7 L415.2,288.5 L416.6,288.3 L418.0,288.1 L419.4,287.9 L420.8,287.7 L422.2,287.4 L423.6,287.1 L425.0,286.9 L426.4,286.6 L427.8,286.3 L429.2,285.9 L430.6,285.6 L432.0,285.3 L433.4,284.9 L434.8,284.5 L436.2,284.1 L437.6,283.8 L439.0,283.4 L440.4,283.0 L441.8,282.6 L443.2,282.2 L444.6,281.8 L446.0,281.4 L447.4,281.0 L448.8,280.6 L450.2,280.3 L451.6,279.9 L453.0,279.6 L454.4,279.3 L455.8,279.0 L457.2,278.8 L458.6,278.5 L460.0,278.3 L461.4,278.2 L462.8,278.0 L464.2,278.0 L465.6,277.9 L467.0,277.9 L468.4,277.9 L469.8,278.0 L471.2,278.0 L472.6,278.2 L474.0,278.3 L475.4,278.5 L476.8,278.8 L478.2,279.0 L479.6,279.3 L481.0,279.6 L482.4,279.9 L483.8,280.3 L485.2,280.7 L486.6,281.1 L488.0,281.5 L489.4,282.0 L490.8,282.5 L492.2,283.0 L493.6,283.4 L495.0,283.9 L496.4,284.4 L497.8,284.9 L499.2,285.4 L500.6,285.9 L502.0,286.4 L503.4,286.9 L504.8,287.4 L506.2,287.8 L507.6,288.3 L509.0,288.7 L510.4,289.1 L511.8,289.5 L513.2,289.9 L514.6,290.3 L516.0,290.6 L517.4,290.9 L518.8,291.2 L520.2,291.5 L521.6,291.8 L523.0,292.1 L524.4,292.3 L525.8,292.6 L527.2,292.8 L528.6,293.0 L530.0,293.2 L531.4,293.3 L532.8,293.5 L534.2,293.6 L535.6,293.7 L537.0,293.9 L538.4,293.9 L539.8,294.0 L541.2,294.1 L542.6,294.1 L544.0,294.1 L545.4,294.2 L546.8,294.2 L548.2,294.2 L549.6,294.2 L551.0,294.2 L552.4,294.2 L553.8,294.2 L555.2,294.2 L556.6,294.2 L558.0,294.2 L559.4,294.2 L560.8,294.2 L562.2,294.2 L563.6,294.2 L565.0,294.2 L566.4,294.2 L567.8,294.2 L569.2,294.2 L570.6,294.2 L572.0,294.2 L573.4,294.2 L574.8,294.2 L576.2,294.2 L577.6,294.2 L579.0,294.2 L580.4,294.2 L581.8,294.2 L583.2,294.2 L584.6,294.2 L586.0,294.2 L587.4,294.2 L588.8,294.2 L590.2,294.2 L591.6,294.2 L593.0,294.2 L594.4,294.2 L595.8,294.2 L597.2,294.2 L598.6,294.2 L600.0,294.2 L601.4,294.2 L602.8,294.2 L604.2,294.2 L605.6,294.2 L607.0,294.2 L608.4,294.2 L609.8,294.2 L611.2,294.2 L612.6,294.2 L614.0,294.2 L615.4,294.2 L616.8,294.2 L618.2,294.2 L619.6,294.2 L621.0,294.2 L622.4,294.2 L623.8,294.2 L625.2,294.2 L626.6,294.2 L628.0,294.2 L629.4,294.2 L630.8,294.2 L632.2,294.2 L633.6,294.2 L635.0,294.2 L636.4,294.2 L637.8,294.2 L639.2,294.2 L640.6,294.2 L642.0,294.2 L643.4,294.2 L644.8,294.2 L646.2,294.2 L647.6,294.2 L649.0,294.2 L650.4,294.2 L651.8,294.2 L653.2,294.2 L654.6,294.2 L656.0,294.2 L657.4,294.2 L658.8,294.2 L660.2,294.2 L661.6,294.2 L663.0,294.2 L664.4,294.2 L665.8,294.2 L667.2,294.2 L668.6,294.2 L670.0,294.2" fill="none" stroke="#c26a05" stroke-width="2.2" stroke-linecap="round" stroke-linejoin="round" opacity="1"/><text x="678.0" y="142.3" font-size="11" font-weight="700" fill="#b42336" text-anchor="start"><tspan x="678.0" dy="0.0">aorta</tspan></text><text x="678.0" y="284.6" font-size="11" font-weight="700" fill="#c26a05" text-anchor="start"><tspan x="678.0" dy="0.0">átrio E</tspan></text><text x="678.0" y="311.5" font-size="11" font-weight="700" fill="#2458b3" text-anchor="start"><tspan x="678.0" dy="0.0">ventrículo E</tspan></text><circle cx="243.0" cy="143.3" r="4.5" fill="#fff" stroke="#1f2328" stroke-width="1.6" opacity="1"/><rect x="190.8" y="106.0" width="47.2" height="28.5" rx="10" fill="#ffffffd0" stroke="none" stroke-width="1.2" opacity="1"/><text x="235.0" y="117.3" font-size="9.8" font-weight="600" fill="#1f2328" text-anchor="end"><tspan x="235.0" dy="0.0">abre a</tspan><tspan x="235.0" dy="12.2">aórtica</tspan></text><circle cx="425.0" cy="95.8" r="4.5" fill="#fff" stroke="#1f2328" stroke-width="1.6" opacity="1"/><rect x="432.0" y="34.5" width="47.2" height="28.5" rx="10" fill="#ffffffd0" stroke="none" stroke-width="1.2" opacity="1"/><text x="435.0" y="45.8" font-size="9.8" font-weight="600" fill="#1f2328" text-anchor="start"><tspan x="435.0" dy="0.0">fecha a</tspan><tspan x="435.0" dy="12.2">aórtica</tspan></text><circle cx="215.0" cy="294.4" r="4.5" fill="#fff" stroke="#1f2328" stroke-width="1.6" opacity="1"/><rect x="164.8" y="243.1" width="47.2" height="28.5" rx="10" fill="#ffffffd0" stroke="none" stroke-width="1.2" opacity="1"/><text x="209.0" y="254.4" font-size="9.8" font-weight="600" fill="#1f2328" text-anchor="end"><tspan x="209.0" dy="0.0">fecha a</tspan><tspan x="209.0" dy="12.2">mitral</tspan></text><circle cx="481.0" cy="294.2" r="4.5" fill="#fff" stroke="#1f2328" stroke-width="1.6" opacity="1"/><rect x="486.0" y="246.9" width="41.3" height="28.5" rx="10" fill="#ffffffd0" stroke="none" stroke-width="1.2" opacity="1"/><text x="489.0" y="258.2" font-size="9.8" font-weight="600" fill="#1f2328" text-anchor="start"><tspan x="489.0" dy="0.0">abre a</tspan><tspan x="489.0" dy="12.2">mitral</tspan></text><rect x="458.0" y="108.4" width="53.0" height="16.2" rx="8.125" fill="#ffffffd0" stroke="none" stroke-width="1.2" opacity="1"/><text x="461.0" y="119.7" font-size="9.8" font-weight="600" fill="#b42336" text-anchor="start"><tspan x="461.0" dy="0.0">incisura</tspan></text><text x="152.0" y="276.6" font-size="11" font-weight="800" fill="#c26a05" text-anchor="middle"><tspan x="152.0" dy="0.0">a</tspan></text><text x="229.0" y="280.5" font-size="11" font-weight="800" fill="#c26a05" text-anchor="middle"><tspan x="229.0" dy="0.0">c</tspan></text><text x="481.0" y="269.9" font-size="11" font-weight="800" fill="#c26a05" text-anchor="middle"><tspan x="481.0" dy="0.0">v</tspan></text><text x="102.0" y="433.5" font-size="10" font-weight="400" fill="#6b7280" text-anchor="end"><tspan x="102.0" dy="0.0">50</tspan></text><text x="102.0" y="393.5" font-size="10" font-weight="400" fill="#6b7280" text-anchor="end"><tspan x="102.0" dy="0.0">90</tspan></text><text x="102.0" y="353.5" font-size="10" font-weight="400" fill="#6b7280" text-anchor="end"><tspan x="102.0" dy="0.0">130</tspan></text><text x="66.0" y="390.0" font-size="11" font-weight="400" fill="#6b7280" text-anchor="middle" transform="rotate(-90 66.0 390.0)"><tspan x="66.0" dy="0.0">volume VE (mℓ)</tspan></text><path d="M110.0,372.0 L111.4,372.0 L112.8,372.0 L114.2,372.0 L115.6,372.0 L117.0,372.0 L118.4,372.0 L119.8,372.0 L121.2,372.0 L122.6,372.0 L124.0,372.0 L125.4,372.0 L126.8,371.9 L128.2,371.7 L129.6,371.5 L131.0,371.3 L132.4,371.0 L133.8,370.6 L135.2,370.2 L136.6,369.8 L138.0,369.3 L139.4,368.9 L140.8,368.3 L142.2,367.8 L143.6,367.2 L145.0,366.6 L146.4,366.0 L147.8,365.4 L149.2,364.8 L150.6,364.1 L152.0,363.5 L153.4,362.9 L154.8,362.2 L156.2,361.6 L157.6,361.0 L159.0,360.4 L160.4,359.8 L161.8,359.2 L163.2,358.7 L164.6,358.1 L166.0,357.7 L167.4,357.2 L168.8,356.8 L170.2,356.4 L171.6,356.0 L173.0,355.7 L174.4,355.5 L175.8,355.3 L177.2,355.1 L178.6,355.0 L180.0,355.0 L181.4,355.0 L182.8,355.0 L184.2,355.0 L185.6,355.0 L187.0,355.0 L188.4,355.0 L189.8,355.0 L191.2,355.0 L192.6,355.0 L194.0,355.0 L195.4,355.0 L196.8,355.0 L198.2,355.0 L199.6,355.0 L201.0,355.0 L202.4,355.0 L203.8,355.0 L205.2,355.0 L206.6,355.0 L208.0,355.0 L209.4,355.0 L210.8,355.0 L212.2,355.0 L213.6,355.0 L215.0,355.0 L216.4,355.0 L217.8,355.0 L219.2,355.0 L220.6,355.0 L222.0,355.0 L223.4,355.0 L224.8,355.0 L226.2,355.0 L227.6,355.0 L229.0,355.0 L230.4,355.0 L231.8,355.0 L233.2,355.0 L234.6,355.0 L236.0,355.0 L237.4,355.0 L238.8,355.0 L240.2,355.0 L241.6,355.0 L243.0,355.0 L244.4,356.0 L245.8,356.9 L247.2,357.9 L248.6,358.8 L250.0,359.8 L251.4,360.7 L252.8,361.6 L254.2,362.6 L255.6,363.5 L257.0,364.4 L258.4,365.3 L259.8,366.2 L261.2,367.1 L262.6,368.0 L264.0,368.9 L265.4,369.7 L266.8,370.6 L268.2,371.5 L269.6,372.3 L271.0,373.2 L272.4,374.0 L273.8,374.9 L275.2,375.7 L276.6,376.5 L278.0,377.3 L279.4,378.2 L280.8,379.0 L282.2,379.8 L283.6,380.6 L285.0,381.3 L286.4,382.1 L287.8,382.9 L289.2,383.7 L290.6,384.4 L292.0,385.2 L293.4,385.9 L294.8,386.7 L296.2,387.4 L297.6,388.2 L299.0,388.9 L300.4,389.6 L301.8,390.3 L303.2,391.0 L304.6,391.7 L306.0,392.4 L307.4,393.1 L308.8,393.8 L310.2,394.5 L311.6,395.1 L313.0,395.8 L314.4,396.4 L315.8,397.1 L317.2,397.7 L318.6,398.4 L320.0,399.0 L321.4,399.6 L322.8,400.2 L324.2,400.8 L325.6,401.4 L327.0,402.0 L328.4,402.6 L329.8,403.2 L331.2,403.8 L332.6,404.3 L334.0,404.9 L335.4,405.5 L336.8,406.0 L338.2,406.5 L339.6,407.1 L341.0,407.6 L342.4,408.1 L343.8,408.6 L345.2,409.1 L346.6,409.6 L348.0,410.1 L349.4,410.6 L350.8,411.1 L352.2,411.5 L353.6,412.0 L355.0,412.5 L356.4,412.9 L357.8,413.4 L359.2,413.8 L360.6,414.2 L362.0,414.6 L363.4,415.0 L364.8,415.4 L366.2,415.8 L367.6,416.2 L369.0,416.6 L370.4,417.0 L371.8,417.4 L373.2,417.7 L374.6,418.1 L376.0,418.4 L377.4,418.7 L378.8,419.1 L380.2,419.4 L381.6,419.7 L383.0,420.0 L384.4,420.3 L385.8,420.6 L387.2,420.9 L388.6,421.1 L390.0,421.4 L391.4,421.7 L392.8,421.9 L394.2,422.1 L395.6,422.4 L397.0,422.6 L398.4,422.8 L399.8,423.0 L401.2,423.2 L402.6,423.4 L404.0,423.6 L405.4,423.7 L406.8,423.9 L408.2,424.0 L409.6,424.2 L411.0,424.3 L412.4,424.4 L413.8,424.5 L415.2,424.6 L416.6,424.7 L418.0,424.8 L419.4,424.9 L420.8,424.9 L422.2,425.0 L423.6,425.0 L425.0,425.0 L426.4,425.0 L427.8,425.0 L429.2,425.0 L430.6,425.0 L432.0,425.0 L433.4,425.0 L434.8,425.0 L436.2,425.0 L437.6,425.0 L439.0,425.0 L440.4,425.0 L441.8,425.0 L443.2,425.0 L444.6,425.0 L446.0,425.0 L447.4,425.0 L448.8,425.0 L450.2,425.0 L451.6,425.0 L453.0,425.0 L454.4,425.0 L455.8,425.0 L457.2,425.0 L458.6,425.0 L460.0,425.0 L461.4,425.0 L462.8,425.0 L464.2,425.0 L465.6,425.0 L467.0,425.0 L468.4,425.0 L469.8,425.0 L471.2,425.0 L472.6,425.0 L474.0,425.0 L475.4,425.0 L476.8,425.0 L478.2,425.0 L479.6,425.0 L481.0,425.0 L482.4,425.0 L483.8,424.8 L485.2,424.6 L486.6,424.2 L488.0,423.8 L489.4,423.3 L490.8,422.8 L492.2,422.1 L493.6,421.4 L495.0,420.6 L496.4,419.8 L497.8,418.9 L499.2,418.0 L500.6,417.0 L502.0,415.9 L503.4,414.9 L504.8,413.7 L506.2,412.6 L507.6,411.4 L509.0,410.2 L510.4,409.0 L511.8,407.8 L513.2,406.5 L514.6,405.3 L516.0,404.0 L517.4,402.7 L518.8,401.5 L520.2,400.2 L521.6,399.0 L523.0,397.8 L524.4,396.6 L525.8,395.4 L527.2,394.3 L528.6,393.1 L530.0,392.1 L531.4,391.0 L532.8,390.0 L534.2,389.1 L535.6,388.2 L537.0,387.4 L538.4,386.6 L539.8,385.9 L541.2,385.2 L542.6,384.7 L544.0,384.2 L545.4,383.8 L546.8,383.4 L548.2,383.2 L549.6,383.0 L551.0,383.0 L552.4,382.9 L553.8,382.7 L555.2,382.6 L556.6,382.5 L558.0,382.4 L559.4,382.2 L560.8,382.1 L562.2,382.0 L563.6,381.8 L565.0,381.7 L566.4,381.6 L567.8,381.4 L569.2,381.3 L570.6,381.2 L572.0,381.1 L573.4,380.9 L574.8,380.8 L576.2,380.7 L577.6,380.5 L579.0,380.4 L580.4,380.3 L581.8,380.2 L583.2,380.0 L584.6,379.9 L586.0,379.8 L587.4,379.6 L588.8,379.5 L590.2,379.4 L591.6,379.2 L593.0,379.1 L594.4,379.0 L595.8,378.9 L597.2,378.7 L598.6,378.6 L600.0,378.5 L601.4,378.3 L602.8,378.2 L604.2,378.1 L605.6,378.0 L607.0,377.8 L608.4,377.7 L609.8,377.6 L611.2,377.4 L612.6,377.3 L614.0,377.2 L615.4,377.0 L616.8,376.9 L618.2,376.8 L619.6,376.7 L621.0,376.5 L622.4,376.4 L623.8,376.3 L625.2,376.1 L626.6,376.0 L628.0,375.9 L629.4,375.8 L630.8,375.6 L632.2,375.5 L633.6,375.4 L635.0,375.2 L636.4,375.1 L637.8,375.0 L639.2,374.8 L640.6,374.7 L642.0,374.6 L643.4,374.5 L644.8,374.3 L646.2,374.2 L647.6,374.1 L649.0,373.9 L650.4,373.8 L651.8,373.7 L653.2,373.6 L654.6,373.4 L656.0,373.3 L657.4,373.2 L658.8,373.0 L660.2,372.9 L661.6,372.8 L663.0,372.6 L664.4,372.5 L665.8,372.4 L667.2,372.3 L668.6,372.1 L670.0,372.0" fill="none" stroke="#6d3fc4" stroke-width="2.6" stroke-linecap="round" stroke-linejoin="round" opacity="1"/><text x="247.0" y="347.0" font-size="9.8" font-weight="600" fill="#6d3fc4" text-anchor="start"><tspan x="247.0" dy="0.0">VDF ≈ 120</tspan></text><text x="429.0" y="441.0" font-size="9.8" font-weight="600" fill="#6d3fc4" text-anchor="start"><tspan x="429.0" dy="0.0">VSF ≈ 50</tspan></text><path d="M110.0,499.9 L111.4,499.8 L112.8,499.7 L114.2,499.6 L115.6,499.4 L117.0,499.2 L118.4,498.9 L119.8,498.5 L121.2,498.1 L122.6,497.7 L124.0,497.2 L125.4,496.6 L126.8,496.1 L128.2,495.6 L129.6,495.1 L131.0,494.7 L132.4,494.5 L133.8,494.3 L135.2,494.3 L136.6,494.5 L138.0,494.7 L139.4,495.1 L140.8,495.6 L142.2,496.1 L143.6,496.6 L145.0,497.2 L146.4,497.7 L147.8,498.1 L149.2,498.5 L150.6,498.9 L152.0,499.2 L153.4,499.4 L154.8,499.6 L156.2,499.7 L157.6,499.8 L159.0,499.9 L160.4,499.9 L161.8,499.9 L163.2,500.0 L164.6,500.0 L166.0,500.0 L167.4,500.0 L168.8,500.0 L170.2,500.0 L171.6,500.0 L173.0,500.0 L174.4,500.0 L175.8,500.0 L177.2,500.0 L178.6,500.0 L180.0,500.0 L181.4,500.0 L182.8,500.0 L184.2,500.0 L185.6,500.2 L187.0,500.9 L188.4,502.5 L189.8,504.1 L191.2,503.6 L192.6,500.6 L194.0,496.0 L195.4,489.9 L196.8,481.8 L198.2,472.6 L199.6,465.0 L201.0,462.0 L202.4,465.1 L203.8,472.9 L205.2,482.8 L206.6,492.1 L208.0,499.8 L209.4,505.4 L210.8,508.5 L212.2,509.0 L213.6,507.3 L215.0,504.7 L216.4,502.4 L217.8,501.0 L219.2,500.3 L220.6,500.1 L222.0,500.0 L223.4,500.0 L224.8,500.0 L226.2,500.0 L227.6,500.0 L229.0,500.0 L230.4,500.0 L231.8,500.0 L233.2,500.0 L234.6,500.0 L236.0,500.0 L237.4,500.0 L238.8,500.0 L240.2,500.0 L241.6,500.0 L243.0,500.0 L244.4,500.0 L245.8,500.0 L247.2,500.0 L248.6,500.0 L250.0,500.0 L251.4,500.0 L252.8,500.0 L254.2,500.0 L255.6,500.0 L257.0,500.0 L258.4,500.0 L259.8,500.0 L261.2,500.0 L262.6,500.0 L264.0,500.0 L265.4,500.0 L266.8,500.0 L268.2,500.0 L269.6,500.0 L271.0,500.0 L272.4,500.0 L273.8,500.0 L275.2,500.0 L276.6,500.0 L278.0,500.0 L279.4,500.0 L280.8,500.0 L282.2,500.0 L283.6,500.0 L285.0,500.0 L286.4,500.0 L287.8,500.0 L289.2,500.0 L290.6,500.0 L292.0,500.0 L293.4,500.0 L294.8,500.0 L296.2,500.0 L297.6,500.0 L299.0,500.0 L300.4,500.0 L301.8,500.0 L303.2,500.0 L304.6,500.0 L306.0,499.9 L307.4,499.9 L308.8,499.9 L310.2,499.9 L311.6,499.8 L313.0,499.8 L314.4,499.7 L315.8,499.7 L317.2,499.6 L318.6,499.5 L320.0,499.4 L321.4,499.3 L322.8,499.1 L324.2,498.9 L325.6,498.7 L327.0,498.5 L328.4,498.3 L329.8,498.0 L331.2,497.7 L332.6,497.3 L334.0,496.9 L335.4,496.5 L336.8,496.0 L338.2,495.6 L339.6,495.1 L341.0,494.5 L342.4,494.0 L343.8,493.4 L345.2,492.9 L346.6,492.3 L348.0,491.8 L349.4,491.2 L350.8,490.7 L352.2,490.3 L353.6,489.9 L355.0,489.5 L356.4,489.2 L357.8,488.9 L359.2,488.7 L360.6,488.6 L362.0,488.6 L363.4,488.6 L364.8,488.7 L366.2,488.9 L367.6,489.2 L369.0,489.5 L370.4,489.9 L371.8,490.3 L373.2,490.7 L374.6,491.2 L376.0,491.8 L377.4,492.3 L378.8,492.9 L380.2,493.4 L381.6,494.0 L383.0,494.5 L384.4,495.1 L385.8,495.6 L387.2,496.0 L388.6,496.5 L390.0,496.9 L391.4,497.3 L392.8,497.7 L394.2,498.0 L395.6,498.3 L397.0,498.5 L398.4,498.7 L399.8,498.9 L401.2,499.1 L402.6,499.3 L404.0,499.4 L405.4,499.5 L406.8,499.6 L408.2,499.7 L409.6,499.7 L411.0,499.8 L412.4,499.8 L413.8,499.9 L415.2,499.9 L416.6,499.9 L418.0,499.9 L419.4,500.0 L420.8,500.0 L422.2,500.0 L423.6,500.0 L425.0,500.0 L426.4,500.0 L427.8,500.0 L429.2,500.0 L430.6,500.0 L432.0,500.0 L433.4,500.0 L434.8,500.0 L436.2,500.0 L437.6,500.0 L439.0,500.0 L440.4,500.0 L441.8,500.0 L443.2,500.0 L444.6,500.0 L446.0,500.0 L447.4,500.0 L448.8,500.0 L450.2,500.0 L451.6,500.0 L453.0,500.0 L454.4,500.0 L455.8,500.0 L457.2,500.0 L458.6,500.0 L460.0,500.0 L461.4,500.0 L462.8,500.0 L464.2,500.0 L465.6,500.0 L467.0,500.0 L468.4,500.0 L469.8,500.0 L471.2,500.0 L472.6,500.0 L474.0,500.0 L475.4,500.0 L476.8,500.0 L478.2,500.0 L479.6,500.0 L481.0,500.0 L482.4,500.0 L483.8,500.0 L485.2,500.0 L486.6,500.0 L488.0,500.0 L489.4,500.0 L490.8,500.0 L492.2,500.0 L493.6,500.0 L495.0,500.0 L496.4,500.0 L497.8,500.0 L499.2,500.0 L500.6,500.0 L502.0,500.0 L503.4,500.0 L504.8,500.0 L506.2,500.0 L507.6,500.0 L509.0,500.0 L510.4,500.0 L511.8,500.0 L513.2,500.0 L514.6,500.0 L516.0,500.0 L517.4,500.0 L518.8,500.0 L520.2,500.0 L521.6,500.0 L523.0,500.0 L524.4,500.0 L525.8,500.0 L527.2,500.0 L528.6,500.0 L530.0,500.0 L531.4,500.0 L532.8,500.0 L534.2,500.0 L535.6,500.0 L537.0,500.0 L538.4,500.0 L539.8,500.0 L541.2,500.0 L542.6,500.0 L544.0,500.0 L545.4,500.0 L546.8,500.0 L548.2,500.0 L549.6,500.0 L551.0,500.0 L552.4,500.0 L553.8,500.0 L555.2,500.0 L556.6,500.0 L558.0,500.0 L559.4,500.0 L560.8,500.0 L562.2,500.0 L563.6,500.0 L565.0,500.0 L566.4,500.0 L567.8,500.0 L569.2,500.0 L570.6,500.0 L572.0,500.0 L573.4,500.0 L574.8,500.0 L576.2,500.0 L577.6,500.0 L579.0,500.0 L580.4,500.0 L581.8,500.0 L583.2,500.0 L584.6,500.0 L586.0,500.0 L587.4,500.0 L588.8,500.0 L590.2,500.0 L591.6,500.0 L593.0,500.0 L594.4,500.0 L595.8,500.0 L597.2,500.0 L598.6,500.0 L600.0,500.0 L601.4,500.0 L602.8,500.0 L604.2,500.0 L605.6,500.0 L607.0,500.0 L608.4,500.0 L609.8,500.0 L611.2,500.0 L612.6,500.0 L614.0,500.0 L615.4,500.0 L616.8,500.0 L618.2,500.0 L619.6,500.0 L621.0,500.0 L622.4,500.0 L623.8,500.0 L625.2,500.0 L626.6,500.0 L628.0,500.0 L629.4,500.0 L630.8,500.0 L632.2,500.0 L633.6,500.0 L635.0,500.0 L636.4,500.0 L637.8,500.0 L639.2,500.0 L640.6,500.0 L642.0,500.0 L643.4,500.0 L644.8,500.0 L646.2,500.0 L647.6,500.0 L649.0,500.0 L650.4,500.0 L651.8,500.0 L653.2,500.0 L654.6,500.0 L656.0,500.0 L657.4,500.0 L658.8,500.0 L660.2,500.0 L661.6,500.0 L663.0,500.0 L664.4,500.0 L665.8,500.0 L667.2,500.0 L668.6,500.0 L670.0,500.0" fill="none" stroke="#23803d" stroke-width="2" stroke-linecap="round" stroke-linejoin="round" opacity="1"/><text x="678.0" y="503.9" font-size="11" font-weight="700" fill="#23803d" text-anchor="start"><tspan x="678.0" dy="0.0">ECG</tspan></text><text x="134.5" y="486.3" font-size="10" font-weight="700" fill="#23803d" text-anchor="middle"><tspan x="134.5" dy="0.0">P</tspan></text><text x="201.0" y="454.0" font-size="10" font-weight="700" fill="#23803d" text-anchor="middle"><tspan x="201.0" dy="0.0">QRS</tspan></text><text x="362.0" y="480.6" font-size="10" font-weight="700" fill="#23803d" text-anchor="middle"><tspan x="362.0" dy="0.0">T</tspan></text><path d="M149.0,548.0 L150.2,549.3 L151.4,547.5 L152.6,545.7 L153.8,549.6 L155.0,551.1 L156.2,544.9 L157.4,545.0 L158.6,552.3 L159.8,549.9 L161.0,543.7 L162.2,547.4 L163.4,551.2 L164.6,547.7 L165.8,546.2 L167.0,548.5 L168.2,548.7" fill="none" stroke="#1f2328" stroke-width="1.4" stroke-linecap="round" stroke-linejoin="round" opacity="1"/><text x="159.0" y="531.0" font-size="10" font-weight="700" fill="#1f2328" text-anchor="middle"><tspan x="159.0" dy="0.0">B4</tspan></text><path d="M205.0,548.0 L206.2,551.1 L207.4,546.9 L208.6,542.5 L209.8,551.8 L211.0,555.5 L212.2,540.5 L213.4,540.8 L214.6,558.3 L215.8,552.6 L217.0,537.7 L218.2,546.6 L219.4,555.7 L220.6,547.3 L221.8,543.7 L223.0,549.1 L224.2,549.8" fill="none" stroke="#1f2328" stroke-width="1.4" stroke-linecap="round" stroke-linejoin="round" opacity="1"/><text x="215.0" y="524.0" font-size="10" font-weight="700" fill="#1f2328" text-anchor="middle"><tspan x="215.0" dy="0.0">B1</tspan></text><path d="M415.0,548.0 L416.2,550.5 L417.4,547.1 L418.6,543.4 L419.8,551.2 L421.0,554.2 L422.2,541.7 L423.4,542.0 L424.6,556.6 L425.8,551.9 L427.0,539.4 L428.2,546.8 L429.4,554.4 L430.6,547.5 L431.8,544.4 L433.0,548.9 L434.2,549.5" fill="none" stroke="#1f2328" stroke-width="1.4" stroke-linecap="round" stroke-linejoin="round" opacity="1"/><text x="425.0" y="526.0" font-size="10" font-weight="700" fill="#1f2328" text-anchor="middle"><tspan x="425.0" dy="0.0">B2</tspan></text><path d="M516.5,548.0 L517.7,549.3 L518.9,547.5 L520.1,545.7 L521.3,549.6 L522.5,551.1 L523.7,544.9 L524.9,545.0 L526.1,552.3 L527.3,549.9 L528.5,543.7 L529.7,547.4 L530.9,551.2 L532.1,547.7 L533.3,546.2 L534.5,548.5 L535.7,548.7" fill="none" stroke="#1f2328" stroke-width="1.4" stroke-linecap="round" stroke-linejoin="round" opacity="1"/><text x="526.5" y="531.0" font-size="10" font-weight="700" fill="#1f2328" text-anchor="middle"><tspan x="526.5" dy="0.0">B3</tspan></text><text x="678.0" y="551.9" font-size="11" font-weight="700" fill="#1f2328" text-anchor="start"><tspan x="678.0" dy="0.0">bulhas</tspan></text></svg>