<svg xmlns="http://www.w3.org/2000/svg" viewBox="0 0 840 400" width="840" height="400" font-family="Inter, 'DejaVu Sans', sans-serif" xmlns:c2pa="http://c2pa.org/manifest"><metadata><c2pa:manifest>AAAWgmp1bWIAAAAeanVtZGMycGEAEQAQgAAAqgA4m3EDYzJwYQAAABZcanVtYgAAAEdqdW1kYzJtYQARABCAAACqADibcQN1cm46YzJwYTphYzhjZGFmYy1iOWM2LTRiYmYtOGEwNS03MDJmNzBhMmYyYTcAAAADl2p1bWIAAAApanVtZGMyYXMAEQAQgAAAqgA4m3EDYzJwYS5hc3NlcnRpb25zAAAAALxqdW1iAAAARGp1bWRjYm9yABEAEIAAAKoAOJtxE2MycGEuaW5ncmVkaWVudC52MwAAAAAYYzJzaE0h5VwaJSsCavXrRH21xOoAAABwY2JvcqNpZGM6Zm9ybWF0bWltYWdlL3N2Zyt4bWxqaW5zdGFuY2VJRHgseG1wOmlpZDozMzA5MThhZC03M2NjLTQxNzctODIwZC1iNDZmM2UxN2ZiYThscmVsYXRpb25zaGlwaHBhcmVudE9mAAAB4mp1bWIAAABBanVtZGNib3IAEQAQgAAAqgA4m3ETYzJwYS5hY3Rpb25zLnYyAAAAABhjMnNoManHW8/GeGUBoDxKGVhIgAAAAZljYm9yomdhY3Rpb25zgqJmYWN0aW9ua2MycGEub3BlbmVkanBhcmFtZXRlcnOha2luZ3JlZGllbnRzgaJjdXJseC1zZWxmI2p1bWJmPWMycGEuYXNzZXJ0aW9ucy9jMnBhLmluZ3JlZGllbnQudjNkaGFzaFgg8jwTL+G02gqD+SbKqt2hEZJPjq3cMZdq0lxgB9PwKZukZmFjdGlvbngdY29tLmFudGhyb3BpYy5jbGF1ZGUucHJvdmlkZWRqcGFyYW1ldGVyc6F4H2NvbS5hbnRocm9waWMub3JpZ2luLWNvbmZpZGVuY2VndW5rbm93bmtkZXNjcmlwdGlvbnhmQ2xhdWRlIHByb3ZpZGVkIHRoaXMgZmlsZSBhdCB0aGUgcmVxdWVzdCBvZiBhIHVzZXIgYW5kIG1heSBoYXZlIGNyZWF0ZWQgb3IgbW9kaWZpZWQgdGhlIGZpbGUgY29udGVudHMubXNvZnR3YXJlQWdlbnShZG5hbWVmQ2xhdWRlcmFsbEFjdGlvbnNJbmNsdWRlZPUAAADIanVtYgAAAEBqdW1kY2JvcgARABCAAACqADibcRNjMnBhLmhhc2guZGF0YQAAAAAYYzJzaAgkFyeruNpIvxeVT0PW8/cAAACAY2JvcqVjYWxnZnNoYTI1NmNwYWRNAAAAAAAAAAAAAAAAAGRoYXNoWCDeiXuRCDVi6bP7rNwcUv4RhvcJ1iPzgcCtwaUYcZylZ2RuYW1lbmp1bWJmIG1hbmlmZXN0amV4Y2x1c2lvbnOBomVzdGFydBjFZmxlbmd0aBkeBAAAAj5qdW1iAAAAJ2p1bWRjMmNsABEAEIAAAKoAOJtxA2MycGEuY2xhaW0udjIAAAACD2Nib3KlY2FsZ2ZzaGEyNTZpc2lnbmF0dXJleE1zZWxmI2p1bWJmPS9jMnBhL3VybjpjMnBhOmFjOGNkYWZjLWI5YzYtNGJiZi04YTA1LTcwMmY3MGEyZjJhNy9jMnBhLnNpZ25hdHVyZWppbnN0YW5jZUlEeCx4bXA6aWlkOjg4NzYxZWQ0LWI5ODQtNGVjZC04ODIwLTNkMjA3NTY0YWE3YXJjcmVhdGVkX2Fzc2VydGlvbnODomN1cmx4LXNlbGYjanVtYmY9YzJwYS5hc3NlcnRpb25zL2MycGEuaW5ncmVkaWVudC52M2RoYXNoWCDyPBMv4bTaCoP5Jsqq3aERkk+Ordwxl2rSXGAH0/Apm6JjdXJseCpzZWxmI2p1bWJmPWMycGEuYXNzZXJ0aW9ucy9jMnBhLmFjdGlvbnMudjJkaGFzaFggBfK9VuGWcXqfRpcGVxToWZZFkArW1SkVjRUZJ3f3W9OiY3VybHgpc2VsZiNqdW1iZj1jMnBhLmFzc2VydGlvbnMvYzJwYS5oYXNoLmRhdGFkaGFzaFggLZ7/Bwh53ySjDqVB2eoEfH+DNMlbeAMZL8EMTCfBf8Z0Y2xhaW1fZ2VuZXJhdG9yX2luZm+jZG5hbWVvQW50aHJvcGljIEZpbGVzZ3ZlcnNpb25lMS4wLjBrc3BlY1ZlcnNpb25lMi40LjAAABA4anVtYgAAAChqdW1kYzJjcwARABCAAACqADibcQNjMnBhLnNpZ25hdHVyZQAAABAIY2JvctKEWQISogEmGCFZAgowggIGMIIBjaADAgECAhRA5aAK7sI50L64g/oGQgU9Z1UTADAKBggqhkjOPQQDAzBJMRcwFQYDVQQKEw5BbnRocm9waWMsIFBCQzEuMCwGA1UEAxMlQW50aHJvcGljIENvbnRlbnQgQ3JlZGVudGlhbHMgUm9vdCBDQTAeFw0yNjA4MDcxODQzNTZaFw0yODA4MDYxOTQzNTZaMEQxFzAVBgNVBAoTDkFudGhyb3BpYywgUEJDMSkwJwYDVQQDEyBBbnRocm9waWMgQ2xhdWRlIENvbnRlbnQgU2lnbmluZzBZMBMGByqGSM49AgEGCCqGSM49AwEHA0IABJh6CmvLUBgFFNU0vUKlOVtE6djd17L5SuwX0LemFisBM3dkd/3cyjxFA3Qo5S46fX0/ihY0VZ7mfb9KF703t5OjWDBWMA4GA1UdDwEB/wQEAwIHgDAVBgNVHSUEDjAMBgorBgEEAYPoXgIBMAwGA1UdEwEB/wQCMAAwHwYDVR0jBBgwFoAUzlHiBIFOZFsj+OPEz5o+nMHXXMIwCgYIKoZIzj0EAwMDZwAwZAIwMXMdFJ4BetLLVY7ORuE9noqbbAZOZn/aArXyTwFAZfKrPzxF2vPoJNf1+UCdg1XGAjBwX1zd9WGqYkqmL5SFqw1QySjr1zJfpJM9+1rdDwSPLMOPOjKuiXjoU/pUUeG9RwmhY3BhZFkNngAAAAAAAAAAAAAAAAAAAAAAAAAAAAAAAAAAAAAAAAAAAAAAAAAAAAAAAAAAAAAAAAAAAAAAAAAAAAAAAAAAAAAAAAAAAAAAAAAAAAAAAAAAAAAAAAAAAAAAAAAAAAAAAAAAAAAAAAAAAAAAAAAAAAAAAAAAAAAAAAAAAAAAAAAAAAAAAAAAAAAAAAAAAAAAAAAAAAAAAAAAAAAAAAAAAAAAAAAAAAAAAAAAAAAAAAAAAAAAAAAAAAAAAAAAAAAAAAAAAAAAAAAAAAAAAAAAAAAAAAAAAAAAAAAAAAAAAAAAAAAAAAAAAAAAAAAAAAAAAAAAAAAAAAAAAAAAAAAAAAAAAAAAAAAAAAAAAAAAAAAAAAAAAAAAAAAAAAAAAAAAAAAAAAAAAAAAAAAAAAAAAAAAAAAAAAAAAAAAAAAAAAAAAAAAAAAAAAAAAAAAAAAAAAAAAAAAAAAAAAAAAAAAAAAAAAAAAAAAAAAAAAAAAAAAAAAAAAAAAAAAAAAAAAAAAAAAAAAAAAAAAAAAAAAAAAAAAAAAAAAAAAAAAAAAAAAAAAAAAAAAAAAAAAAAAAAAAAAAAAAAAAAAAAAAAAAAAAAAAAAAAAAAAAAAAAAAAAAAAAAAAAAAAAAAAAAAAAAAAAAAAAAAAAAAAAAAAAAAAAAAAAAAAAAAAAAAAAAAAAAAAAAAAAAAAAAAAAAAAAAAAAAAAAAAAAAAAAAAAAAAAAAAAAAAAAAAAAAAAAAAAAAAAAAAAAAAAAAAAAAAAAAAAAAAAAAAAAAAAAAAAAAAAAAAAAAAAAAAAAAAAAAAAAAAAAAAAAAAAAAAAAAAAAAAAAAAAAAAAAAAAAAAAAAAAAAAAAAAAAAAAAAAAAAAAAAAAAAAAAAAAAAAAAAAAAAAAAAAAAAAAAAAAAAAAAAAAAAAAAAAAAAAAAAAAAAAAAAAAAAAAAAAAAAAAAAAAAAAAAAAAAAAAAAAAAAAAAAAAAAAAAAAAAAAAAAAAAAAAAAAAAAAAAAAAAAAAAAAAAAAAAAAAAAAAAAAAAAAAAAAAAAAAAAAAAAAAAAAAAAAAAAAAAAAAAAAAAAAAAAAAAAAAAAAAAAAAAAAAAAAAAAAAAAAAAAAAAAAAAAAAAAAAAAAAAAAAAAAAAAAAAAAAAAAAAAAAAAAAAAAAAAAAAAAAAAAAAAAAAAAAAAAAAAAAAAAAAAAAAAAAAAAAAAAAAAAAAAAAAAAAAAAAAAAAAAAAAAAAAAAAAAAAAAAAAAAAAAAAAAAAAAAAAAAAAAAAAAAAAAAAAAAAAAAAAAAAAAAAAAAAAAAAAAAAAAAAAAAAAAAAAAAAAAAAAAAAAAAAAAAAAAAAAAAAAAAAAAAAAAAAAAAAAAAAAAAAAAAAAAAAAAAAAAAAAAAAAAAAAAAAAAAAAAAAAAAAAAAAAAAAAAAAAAAAAAAAAAAAAAAAAAAAAAAAAAAAAAAAAAAAAAAAAAAAAAAAAAAAAAAAAAAAAAAAAAAAAAAAAAAAAAAAAAAAAAAAAAAAAAAAAAAAAAAAAAAAAAAAAAAAAAAAAAAAAAAAAAAAAAAAAAAAAAAAAAAAAAAAAAAAAAAAAAAAAAAAAAAAAAAAAAAAAAAAAAAAAAAAAAAAAAAAAAAAAAAAAAAAAAAAAAAAAAAAAAAAAAAAAAAAAAAAAAAAAAAAAAAAAAAAAAAAAAAAAAAAAAAAAAAAAAAAAAAAAAAAAAAAAAAAAAAAAAAAAAAAAAAAAAAAAAAAAAAAAAAAAAAAAAAAAAAAAAAAAAAAAAAAAAAAAAAAAAAAAAAAAAAAAAAAAAAAAAAAAAAAAAAAAAAAAAAAAAAAAAAAAAAAAAAAAAAAAAAAAAAAAAAAAAAAAAAAAAAAAAAAAAAAAAAAAAAAAAAAAAAAAAAAAAAAAAAAAAAAAAAAAAAAAAAAAAAAAAAAAAAAAAAAAAAAAAAAAAAAAAAAAAAAAAAAAAAAAAAAAAAAAAAAAAAAAAAAAAAAAAAAAAAAAAAAAAAAAAAAAAAAAAAAAAAAAAAAAAAAAAAAAAAAAAAAAAAAAAAAAAAAAAAAAAAAAAAAAAAAAAAAAAAAAAAAAAAAAAAAAAAAAAAAAAAAAAAAAAAAAAAAAAAAAAAAAAAAAAAAAAAAAAAAAAAAAAAAAAAAAAAAAAAAAAAAAAAAAAAAAAAAAAAAAAAAAAAAAAAAAAAAAAAAAAAAAAAAAAAAAAAAAAAAAAAAAAAAAAAAAAAAAAAAAAAAAAAAAAAAAAAAAAAAAAAAAAAAAAAAAAAAAAAAAAAAAAAAAAAAAAAAAAAAAAAAAAAAAAAAAAAAAAAAAAAAAAAAAAAAAAAAAAAAAAAAAAAAAAAAAAAAAAAAAAAAAAAAAAAAAAAAAAAAAAAAAAAAAAAAAAAAAAAAAAAAAAAAAAAAAAAAAAAAAAAAAAAAAAAAAAAAAAAAAAAAAAAAAAAAAAAAAAAAAAAAAAAAAAAAAAAAAAAAAAAAAAAAAAAAAAAAAAAAAAAAAAAAAAAAAAAAAAAAAAAAAAAAAAAAAAAAAAAAAAAAAAAAAAAAAAAAAAAAAAAAAAAAAAAAAAAAAAAAAAAAAAAAAAAAAAAAAAAAAAAAAAAAAAAAAAAAAAAAAAAAAAAAAAAAAAAAAAAAAAAAAAAAAAAAAAAAAAAAAAAAAAAAAAAAAAAAAAAAAAAAAAAAAAAAAAAAAAAAAAAAAAAAAAAAAAAAAAAAAAAAAAAAAAAAAAAAAAAAAAAAAAAAAAAAAAAAAAAAAAAAAAAAAAAAAAAAAAAAAAAAAAAAAAAAAAAAAAAAAAAAAAAAAAAAAAAAAAAAAAAAAAAAAAAAAAAAAAAAAAAAAAAAAAAAAAAAAAAAAAAAAAAAAAAAAAAAAAAAAAAAAAAAAAAAAAAAAAAAAAAAAAAAAAAAAAAAAAAAAAAAAAAAAAAAAAAAAAAAAAAAAAAAAAAAAAAAAAAAAAAAAAAAAAAAAAAAAAAAAAAAAAAAAAAAAAAAAAAAAAAAAAAAAAAAAAAAAAAAAAAAAAAAAAAAAAAAAAAAAAAAAAAAAAAAAAAAAAAAAAAAAAAAAAAAAAAAAAAAAAAAAAAAAAAAAAAAAAAAAAAAAAAAAAAAAAAAAAAAAAAAAAAAAAAAAAAAAAAAAAAAAAAAAAAAAAAAAAAAAAAAAAAAAAAAAAAAAAAAAAAAAAAAAAAAAAAAAAAAAAAAAAAAAAAAAAAAAAAAAAAAAAAAAAAAAAAAAAAAAAAAAAAAAAAAAAAAAAAAAAAAAAAAAAAAAAAAAAAAAAAAAAAAAAAAAAAAAAAAAAAAAAAAAAAAAAAAAAAAAAAAAAAAAAAAAAAAAAAAAAAAAAAAAAAAAAAAAAAAAAAAAAAAAAAAAAAAAAAAAAAAAAAAAAAAAAAAAAAAAAAAAAAAAAAAAAAAAAAAAAAAAAAAAAAAAAAAAAAAAAAAAAAAAAAAAAAAAAAAAAAAAAAAAAAAAAAAAAAAAAAAAAAAAAAAAAAAAAAAAAAAAAAAAAAAAAAAAAAAAAAAAAAAAAAAAAAAAAAAAAAAAAAAAAAAAAAAAAAAAAAAAAAAAAAAAAAAAAAAAAAAAAAAAAAAAAAAAAAAAAAAAAAAAAAAAAAAAAAAAAAAAAAAAAAAAAAAAAAAAAAAAAAAAAAAAAAAAAAAAAAAAAAAAAAAAAAAAAAAAAAAAAAAAAAAAAAAAAAAAAAAAAAAAAAAAAAAAAAAAAAAAAAAAAAAAAAAAAAAAAAAAAAAAAAAAAAAAAAAAAAAAAAAAAAAAAAAAAAAAAAAAAAAAAAAAAAAAAAAAAAAAAAAAAAAAAAAAAAAAAAAAAAAAAAAAAAAAAAAAAAAAAAAAAAAAAAAAAAAAAAAAAAAAAAAAAAAAAAAAAAAAAAAAAAAAAAAAAAAAAAAAAAAAAAAAAAAAAAAAAAAAAAAAAAAAAAAAAAAAAAAAAAAAAAAAAAAAAAAAAAAAAAAAAAAAAAAAAAAAAAAAAAAAAAAAAAAAAAAAAAAAAAAAAAAAAAAAAAAAAAAAAAAAAAAAAAAAAAAAAAAAAAAAAAAAAAAAAAAAAAAAAAAAAAAAAAAAAAAAAAAAAAAAAAAAAAAAAAAAAAAAAAAAAAAAAAAAAAAAAAAAAAAAAAAAAAAAAAAAAAAAAAAAAAAAAAAAAAAAAAAAAAAAAAAAAAAAAAAAAAAAAAAAAAAAAAAAAAAAAAAAAAAAAAAAAAAAAAAAAAAAAAAAAAAAAAAAAAAAAAAAAAAAAAAAAAAAAAAAAAAAAAAAAAAAAAAAAAAAAAAAAAAAAAAAAAAAAAAAAAAAAAAAAAAAAAAAAAAAAAAAAAAAAAAAAAAAAAAAAAAAAAAAAAAAAAAAAAAAAAAAAAAAAAAAAAAAAAAAAAAAAAAAAAAAAAAAAAAAAAAAAAAAAAAAAAAAAAAAAAAAAAAAAAAAAAAAAAAAAAAAAAAAAAAAAAAAAAAAAAAAAAAAAAAAAAAAAAAAAAAAAAAAAAAAAAAAAAAAAAAAAAAAAAAAAAAAAAAAAAAAAAAAAAAAAAAAAAAAAAAAAAAAAAAAAAAAAAAAAAAAAAAAAAAAAAAAAAAAAAAAAAAAAAAAAAAAAAAAAAAAAAAAAAAAAAAAAAAAAAAAAAAAAAAAAAAAAAAAAAAAAAAPZYQLbLfClyf/ioDlPuGKLk898VwqC9cUNklNNvdeftyR6gc1a3DDtdsE9LDY2tZGRscdXuvmKW/PBvq0vh6PbAHTM=</c2pa:manifest></metadata><defs><filter id="sh" x="-10%" y="-10%" width="130%" height="140%"><feDropShadow dx="0" dy="1.5" stdDeviation="2.2" flood-color="#1f2328" flood-opacity="0.13"/></filter></defs><rect x="82.0" y="18.0" width="486.0" height="108.0" rx="8" fill="#fafbfc" stroke="none" stroke-width="1.2" opacity="1"/><path d="M90.0,83.4 L560.0,83.4" fill="none" stroke="#6b7280" stroke-width="1" stroke-linecap="round" stroke-linejoin="round" opacity="1" stroke-dasharray="4 4"/><path d="M90.0,101.7 L560.0,101.7" fill="none" stroke="#dfe2e6" stroke-width="1" stroke-linecap="round" stroke-linejoin="round" opacity="1"/><text x="78.0" y="86.8" font-size="9.5" font-weight="400" fill="#6b7280" text-anchor="end"><tspan x="78.0" dy="0.0">−40</tspan></text><text x="78.0" y="105.0" font-size="9.5" font-weight="400" fill="#6b7280" text-anchor="end"><tspan x="78.0" dy="0.0">−60</tspan></text><path d="M90.0,99.0 L91.6,98.7 L93.3,98.3 L94.9,97.8 L96.5,97.3 L98.2,96.8 L99.8,96.2 L101.4,95.6 L103.1,95.0 L104.7,94.4 L106.3,93.8 L108.0,93.1 L109.6,92.4 L111.2,91.7 L112.8,91.0 L114.5,90.3 L116.1,89.6 L117.7,88.9 L119.4,88.1 L121.0,87.4 L122.6,86.6 L124.3,85.8 L125.9,85.0 L127.5,84.2 L129.2,83.4 L130.5,76.1 L131.9,69.6 L133.3,63.8 L134.7,58.9 L136.0,54.6 L137.4,51.2 L138.8,48.5 L140.1,46.6 L141.5,45.4 L142.9,45.0 L145.7,45.6 L148.5,47.3 L151.3,50.0 L154.1,53.5 L157.0,57.5 L159.8,62.1 L162.6,67.0 L165.4,72.0 L168.2,77.0 L171.0,81.9 L173.8,86.5 L176.7,90.5 L179.5,94.0 L182.3,96.7 L185.1,98.4 L187.9,99.0 L189.5,98.7 L191.2,98.3 L192.8,97.8 L194.4,97.3 L196.1,96.8 L197.7,96.2 L199.3,95.6 L201.0,95.0 L202.6,94.4 L204.2,93.8 L205.9,93.1 L207.5,92.4 L209.1,91.7 L210.8,91.0 L212.4,90.3 L214.0,89.6 L215.7,88.9 L217.3,88.1 L218.9,87.4 L220.6,86.6 L222.2,85.8 L223.8,85.0 L225.5,84.2 L227.1,83.4 L228.5,76.1 L229.8,69.6 L231.2,63.8 L232.6,58.9 L233.9,54.6 L235.3,51.2 L236.7,48.5 L238.1,46.6 L239.4,45.4 L240.8,45.0 L243.6,45.6 L246.4,47.3 L249.2,50.0 L252.1,53.5 L254.9,57.5 L257.7,62.1 L260.5,67.0 L263.3,72.0 L266.1,77.0 L268.9,81.9 L271.8,86.5 L274.6,90.5 L277.4,94.0 L280.2,96.7 L283.0,98.4 L285.8,99.0 L287.5,98.7 L289.1,98.3 L290.7,97.8 L292.4,97.3 L294.0,96.8 L295.6,96.2 L297.3,95.6 L298.9,95.0 L300.5,94.4 L302.2,93.8 L303.8,93.1 L305.4,92.4 L307.0,91.7 L308.7,91.0 L310.3,90.3 L311.9,89.6 L313.6,88.9 L315.2,88.1 L316.8,87.4 L318.5,86.6 L320.1,85.8 L321.7,85.0 L323.4,84.2 L325.0,83.4 L326.4,76.1 L327.7,69.6 L329.1,63.8 L330.5,58.9 L331.9,54.6 L333.2,51.2 L334.6,48.5 L336.0,46.6 L337.3,45.4 L338.7,45.0 L341.5,45.6 L344.3,47.3 L347.2,50.0 L350.0,53.5 L352.8,57.5 L355.6,62.1 L358.4,67.0 L361.2,72.0 L364.0,77.0 L366.9,81.9 L369.7,86.5 L372.5,90.5 L375.3,94.0 L378.1,96.7 L380.9,98.4 L383.8,99.0 L385.4,98.7 L387.0,98.3 L388.6,97.8 L390.3,97.3 L391.9,96.8 L393.5,96.2 L395.2,95.6 L396.8,95.0 L398.4,94.4 L400.1,93.8 L401.7,93.1 L403.3,92.4 L405.0,91.7 L406.6,91.0 L408.2,90.3 L409.9,89.6 L411.5,88.9 L413.1,88.1 L414.8,87.4 L416.4,86.6 L418.0,85.8 L419.7,85.0 L421.3,84.2 L422.9,83.4 L424.3,76.1 L425.7,69.6 L427.0,63.8 L428.4,58.9 L429.8,54.6 L431.1,51.2 L432.5,48.5 L433.9,46.6 L435.3,45.4 L436.6,45.0 L439.4,45.6 L442.3,47.3 L445.1,50.0 L447.9,53.5 L450.7,57.5 L453.5,62.1 L456.3,67.0 L459.1,72.0 L462.0,77.0 L464.8,81.9 L467.6,86.5 L470.4,90.5 L473.2,94.0 L476.0,96.7 L478.9,98.4 L481.7,99.0 L483.3,98.7 L484.9,98.3 L486.6,97.8 L488.2,97.3 L489.8,96.8 L491.5,96.2 L493.1,95.6 L494.7,95.0 L496.4,94.4 L498.0,93.8 L499.6,93.1 L501.3,92.4 L502.9,91.7 L504.5,91.0 L506.1,90.3 L507.8,89.6 L509.4,88.9 L511.0,88.1 L512.7,87.4 L514.3,86.6 L515.9,85.8 L517.6,85.0 L519.2,84.2 L520.8,83.4 L522.2,76.1 L523.6,69.6 L524.9,63.8 L526.3,58.9 L527.7,54.6 L529.1,51.2 L530.4,48.5 L531.8,46.6 L533.2,45.4 L534.5,45.0 L537.4,45.6 L540.2,47.3 L543.0,50.0 L545.8,53.5 L548.6,57.5 L551.4,62.1 L554.2,67.0 L557.1,72.0 L559.9,77.0" fill="none" stroke="#c26a05" stroke-width="2.6" stroke-linecap="round" stroke-linejoin="round" opacity="1"/><text x="564.0" y="34.0" font-size="10.5" font-weight="700" fill="#c26a05" text-anchor="end"><tspan x="564.0" dy="0.0">≈ 120 bpm</tspan></text><rect x="600.0" y="18.0" width="226.0" height="108.0" rx="10" fill="#fff1dc" stroke="none" stroke-width="1.2" opacity="1"/><rect x="600.0" y="18.0" width="5.0" height="108.0" rx="2" fill="#c26a05" stroke="none" stroke-width="1.2" opacity="1"/><text x="616.0" y="42.0" font-size="11.5" font-weight="700" fill="#c26a05" text-anchor="start"><tspan x="616.0" dy="0.0">Simpático (noradrenalina, β1)</tspan></text><text x="616.0" y="63.5" font-size="10.5" font-weight="400" fill="#1f2328" text-anchor="start"><tspan x="616.0" dy="0.0">↑ Na⁺ e Ca²⁺ → rampa mais</tspan><tspan x="616.0" dy="13.1">íngreme → <tspan font-weight="700">FC ↑</tspan> (e força ↑)</tspan></text><rect x="82.0" y="130.0" width="486.0" height="108.0" rx="8" fill="#fafbfc" stroke="none" stroke-width="1.2" opacity="1"/><path d="M90.0,195.4 L560.0,195.4" fill="none" stroke="#6b7280" stroke-width="1" stroke-linecap="round" stroke-linejoin="round" opacity="1" stroke-dasharray="4 4"/><path d="M90.0,213.7 L560.0,213.7" fill="none" stroke="#dfe2e6" stroke-width="1" stroke-linecap="round" stroke-linejoin="round" opacity="1"/><text x="78.0" y="198.8" font-size="9.5" font-weight="400" fill="#6b7280" text-anchor="end"><tspan x="78.0" dy="0.0">−40</tspan></text><text x="78.0" y="217.0" font-size="9.5" font-weight="400" fill="#6b7280" text-anchor="end"><tspan x="78.0" dy="0.0">−60</tspan></text><path d="M90.0,213.7 L94.1,213.4 L98.2,212.9 L102.2,212.4 L106.3,211.8 L110.4,211.1 L114.5,210.5 L118.6,209.8 L122.6,209.1 L126.7,208.3 L130.8,207.6 L134.9,206.8 L139.0,206.0 L143.0,205.2 L147.1,204.4 L151.2,203.6 L155.3,202.7 L159.4,201.8 L163.4,201.0 L167.5,200.1 L171.6,199.2 L175.7,198.2 L179.8,197.3 L183.8,196.4 L187.9,195.4 L189.3,188.1 L190.7,181.6 L192.0,175.8 L193.4,170.9 L194.8,166.6 L196.1,163.2 L197.5,160.5 L198.9,158.6 L200.3,157.4 L201.6,157.0 L204.4,157.7 L207.3,159.5 L210.1,162.3 L212.9,165.9 L215.7,170.2 L218.5,175.0 L221.3,180.1 L224.1,185.4 L227.0,190.7 L229.8,195.8 L232.6,200.6 L235.4,204.9 L238.2,208.5 L241.0,211.3 L243.9,213.1 L246.7,213.7 L250.7,213.4 L254.8,212.9 L258.9,212.4 L263.0,211.8 L267.1,211.1 L271.1,210.5 L275.2,209.8 L279.3,209.1 L283.4,208.3 L287.5,207.6 L291.5,206.8 L295.6,206.0 L299.7,205.2 L303.8,204.4 L307.9,203.6 L311.9,202.7 L316.0,201.8 L320.1,201.0 L324.2,200.1 L328.3,199.2 L332.3,198.2 L336.4,197.3 L340.5,196.4 L344.6,195.4 L346.0,188.1 L347.3,181.6 L348.7,175.8 L350.1,170.9 L351.4,166.6 L352.8,163.2 L354.2,160.5 L355.6,158.6 L356.9,157.4 L358.3,157.0 L361.1,157.7 L363.9,159.5 L366.7,162.3 L369.6,165.9 L372.4,170.2 L375.2,175.0 L378.0,180.1 L380.8,185.4 L383.6,190.7 L386.4,195.8 L389.3,200.6 L392.1,204.9 L394.9,208.5 L397.7,211.3 L400.5,213.1 L403.3,213.7 L407.4,213.4 L411.5,212.9 L415.6,212.4 L419.7,211.8 L423.7,211.1 L427.8,210.5 L431.9,209.8 L436.0,209.1 L440.1,208.3 L444.1,207.6 L448.2,206.8 L452.3,206.0 L456.4,205.2 L460.5,204.4 L464.5,203.6 L468.6,202.7 L472.7,201.8 L476.8,201.0 L480.9,200.1 L484.9,199.2 L489.0,198.2 L493.1,197.3 L497.2,196.4 L501.3,195.4 L502.6,188.1 L504.0,181.6 L505.4,175.8 L506.7,170.9 L508.1,166.6 L509.5,163.2 L510.8,160.5 L512.2,158.6 L513.6,157.4 L515.0,157.0 L517.8,157.7 L520.6,159.5 L523.4,162.3 L526.2,165.9 L529.0,170.2 L531.8,175.0 L534.7,180.1 L537.5,185.4 L540.3,190.7 L543.1,195.8 L545.9,200.6 L548.7,204.9 L551.6,208.5 L554.4,211.3 L557.2,213.1" fill="none" stroke="#1f2328" stroke-width="2.6" stroke-linecap="round" stroke-linejoin="round" opacity="1"/><text x="564.0" y="146.0" font-size="10.5" font-weight="700" fill="#1f2328" text-anchor="end"><tspan x="564.0" dy="0.0">≈ 75 bpm</tspan></text><rect x="600.0" y="130.0" width="226.0" height="108.0" rx="10" fill="#f3f4f6" stroke="none" stroke-width="1.2" opacity="1"/><rect x="600.0" y="130.0" width="5.0" height="108.0" rx="2" fill="#1f2328" stroke="none" stroke-width="1.2" opacity="1"/><text x="616.0" y="154.0" font-size="11.5" font-weight="700" fill="#1f2328" text-anchor="start"><tspan x="616.0" dy="0.0">Normal</tspan></text><text x="616.0" y="175.4" font-size="10.5" font-weight="400" fill="#1f2328" text-anchor="start"><tspan x="616.0" dy="0.0">≈ 70 a 80 bpm</tspan></text><rect x="82.0" y="242.0" width="486.0" height="108.0" rx="8" fill="#fafbfc" stroke="none" stroke-width="1.2" opacity="1"/><path d="M90.0,307.4 L560.0,307.4" fill="none" stroke="#6b7280" stroke-width="1" stroke-linecap="round" stroke-linejoin="round" opacity="1" stroke-dasharray="4 4"/><path d="M90.0,325.7 L560.0,325.7" fill="none" stroke="#dfe2e6" stroke-width="1" stroke-linecap="round" stroke-linejoin="round" opacity="1"/><text x="78.0" y="310.8" font-size="9.5" font-weight="400" fill="#6b7280" text-anchor="end"><tspan x="78.0" dy="0.0">−40</tspan></text><text x="78.0" y="329.0" font-size="9.5" font-weight="400" fill="#6b7280" text-anchor="end"><tspan x="78.0" dy="0.0">−60</tspan></text><path d="M90.0,336.7 L97.8,336.1 L105.5,335.4 L113.3,334.5 L121.0,333.6 L128.8,332.6 L136.5,331.5 L144.3,330.4 L152.0,329.3 L159.8,328.1 L167.5,326.9 L175.3,325.7 L183.0,324.4 L190.8,323.1 L198.5,321.8 L206.3,320.4 L214.0,319.1 L221.8,317.7 L229.5,316.3 L237.3,314.8 L245.0,313.4 L252.8,311.9 L260.5,310.4 L268.3,308.9 L276.0,307.4 L277.4,300.1 L278.8,293.6 L280.2,287.8 L281.5,282.9 L282.9,278.6 L284.3,275.2 L285.6,272.5 L287.0,270.6 L288.4,269.4 L289.8,269.0 L292.6,269.8 L295.4,271.9 L298.2,275.3 L301.0,279.6 L303.8,284.7 L306.6,290.4 L309.5,296.5 L312.3,302.9 L315.1,309.2 L317.9,315.3 L320.7,321.0 L323.5,326.1 L326.3,330.4 L329.2,333.8 L332.0,335.9 L334.8,336.7 L342.5,336.1 L350.3,335.4 L358.0,334.5 L365.8,333.6 L373.6,332.6 L381.3,331.5 L389.1,330.4 L396.8,329.3 L404.6,328.1 L412.3,326.9 L420.1,325.7 L427.8,324.4 L435.6,323.1 L443.3,321.8 L451.1,320.4 L458.8,319.1 L466.6,317.7 L474.3,316.3 L482.1,314.8 L489.8,313.4 L497.6,311.9 L505.3,310.4 L513.1,308.9 L520.8,307.4 L522.2,300.1 L523.6,293.6 L524.9,287.8 L526.3,282.9 L527.7,278.6 L529.1,275.2 L530.4,272.5 L531.8,270.6 L533.2,269.4 L534.5,269.0 L537.4,269.8 L540.2,271.9 L543.0,275.3 L545.8,279.6 L548.6,284.7 L551.4,290.4 L554.2,296.5 L557.1,302.9 L559.9,309.2" fill="none" stroke="#2458b3" stroke-width="2.6" stroke-linecap="round" stroke-linejoin="round" opacity="1"/><text x="564.0" y="258.0" font-size="10.5" font-weight="700" fill="#2458b3" text-anchor="end"><tspan x="564.0" dy="0.0">≈ 48 bpm</tspan></text><rect x="600.0" y="242.0" width="226.0" height="108.0" rx="10" fill="#e6eefb" stroke="none" stroke-width="1.2" opacity="1"/><rect x="600.0" y="242.0" width="5.0" height="108.0" rx="2" fill="#2458b3" stroke="none" stroke-width="1.2" opacity="1"/><text x="616.0" y="266.0" font-size="11.5" font-weight="700" fill="#2458b3" text-anchor="start"><tspan x="616.0" dy="0.0">Vago (acetilcolina)</tspan></text><text x="616.0" y="287.4" font-size="10.5" font-weight="400" fill="#1f2328" text-anchor="start"><tspan x="616.0" dy="0.0">↑ K⁺ → <tspan font-weight="700">hiperpolariza</tspan></tspan><tspan x="616.0" dy="13.1">(−65 a −75 mV) → FC ↓</tspan></text><text x="90.0" y="372.0" font-size="10.5" font-weight="400" fill="#6b7280" text-anchor="middle"><tspan x="90.0" dy="0.0">0</tspan></text><text x="207.5" y="372.0" font-size="10.5" font-weight="400" fill="#6b7280" text-anchor="middle"><tspan x="207.5" dy="0.0">0,6</tspan></text><text x="325.0" y="372.0" font-size="10.5" font-weight="400" fill="#6b7280" text-anchor="middle"><tspan x="325.0" dy="0.0">1,2</tspan></text><text x="442.5" y="372.0" font-size="10.5" font-weight="400" fill="#6b7280" text-anchor="middle"><tspan x="442.5" dy="0.0">1,8</tspan></text><text x="560.0" y="372.0" font-size="10.5" font-weight="400" fill="#6b7280" text-anchor="middle"><tspan x="560.0" dy="0.0">2,4</tspan></text><text x="325.0" y="392.0" font-size="11" font-weight="400" fill="#6b7280" text-anchor="middle"><tspan x="325.0" dy="0.0">tempo (s)</tspan></text><text x="600.0" y="380.0" font-size="9.5" font-weight="400" fill="#6b7280" text-anchor="start"><tspan x="600.0" dy="0.0">Vago forte pode parar o sinusal por 5 a 20 s</tspan><tspan x="600.0" dy="11.9">(até surgir o escape ventricular).</tspan></text></svg>