<svg xmlns="http://www.w3.org/2000/svg" viewBox="0 0 780 340" width="780" height="340" font-family="Inter, 'DejaVu Sans', sans-serif" xmlns:c2pa="http://c2pa.org/manifest"><metadata><c2pa:manifest>AAAWgmp1bWIAAAAeanVtZGMycGEAEQAQgAAAqgA4m3EDYzJwYQAAABZcanVtYgAAAEdqdW1kYzJtYQARABCAAACqADibcQN1cm46YzJwYTpkMTY2MjNhZS00YzUzLTQzZWMtODVhZS1jOGY4MGIwN2U0MGYAAAADl2p1bWIAAAApanVtZGMyYXMAEQAQgAAAqgA4m3EDYzJwYS5hc3NlcnRpb25zAAAAALxqdW1iAAAARGp1bWRjYm9yABEAEIAAAKoAOJtxE2MycGEuaW5ncmVkaWVudC52MwAAAAAYYzJzaGJfCmpWLo7/rkA+2SGua3QAAABwY2JvcqNpZGM6Zm9ybWF0bWltYWdlL3N2Zyt4bWxqaW5zdGFuY2VJRHgseG1wOmlpZDowODI4NzQ5My1hYWFhLTQ2ZDktYWQ3ZS03NmYyMzg2NjFmNDJscmVsYXRpb25zaGlwaHBhcmVudE9mAAAB4mp1bWIAAABBanVtZGNib3IAEQAQgAAAqgA4m3ETYzJwYS5hY3Rpb25zLnYyAAAAABhjMnNoQXn1uUnLe2PQkAfqQXoV1wAAAZljYm9yomdhY3Rpb25zgqJmYWN0aW9ua2MycGEub3BlbmVkanBhcmFtZXRlcnOha2luZ3JlZGllbnRzgaJjdXJseC1zZWxmI2p1bWJmPWMycGEuYXNzZXJ0aW9ucy9jMnBhLmluZ3JlZGllbnQudjNkaGFzaFggdEYFqVadlh9bkZgd9EjAlR0gUELAdbv/8/PR+TeXOlukZmFjdGlvbngdY29tLmFudGhyb3BpYy5jbGF1ZGUucHJvdmlkZWRqcGFyYW1ldGVyc6F4H2NvbS5hbnRocm9waWMub3JpZ2luLWNvbmZpZGVuY2VndW5rbm93bmtkZXNjcmlwdGlvbnhmQ2xhdWRlIHByb3ZpZGVkIHRoaXMgZmlsZSBhdCB0aGUgcmVxdWVzdCBvZiBhIHVzZXIgYW5kIG1heSBoYXZlIGNyZWF0ZWQgb3IgbW9kaWZpZWQgdGhlIGZpbGUgY29udGVudHMubXNvZnR3YXJlQWdlbnShZG5hbWVmQ2xhdWRlcmFsbEFjdGlvbnNJbmNsdWRlZPUAAADIanVtYgAAAEBqdW1kY2JvcgARABCAAACqADibcRNjMnBhLmhhc2guZGF0YQAAAAAYYzJzaGppUkGxs/KVG54jlxC/OMIAAACAY2JvcqVjYWxnZnNoYTI1NmNwYWRNAAAAAAAAAAAAAAAAAGRoYXNoWCBsOU2hz92W/A6w8rNG/ud7O0TsbqO4Znv6JTZmVMFf82RuYW1lbmp1bWJmIG1hbmlmZXN0amV4Y2x1c2lvbnOBomVzdGFydBjFZmxlbmd0aBkeBAAAAj5qdW1iAAAAJ2p1bWRjMmNsABEAEIAAAKoAOJtxA2MycGEuY2xhaW0udjIAAAACD2Nib3KlY2FsZ2ZzaGEyNTZpc2lnbmF0dXJleE1zZWxmI2p1bWJmPS9jMnBhL3VybjpjMnBhOmQxNjYyM2FlLTRjNTMtNDNlYy04NWFlLWM4ZjgwYjA3ZTQwZi9jMnBhLnNpZ25hdHVyZWppbnN0YW5jZUlEeCx4bXA6aWlkOjk2MTZiMGNmLWQyZDQtNDFiYS1iZmU2LTY5ZjI5ZmJmMzkzMnJjcmVhdGVkX2Fzc2VydGlvbnODomN1cmx4LXNlbGYjanVtYmY9YzJwYS5hc3NlcnRpb25zL2MycGEuaW5ncmVkaWVudC52M2RoYXNoWCB0RgWpVp2WH1uRmB30SMCVHSBQQsB1u//z89H5N5c6W6JjdXJseCpzZWxmI2p1bWJmPWMycGEuYXNzZXJ0aW9ucy9jMnBhLmFjdGlvbnMudjJkaGFzaFggpgeBEk1+XrEaG/hl7DLWnWvK6QvMhyA7uqbpQcO9y06iY3VybHgpc2VsZiNqdW1iZj1jMnBhLmFzc2VydGlvbnMvYzJwYS5oYXNoLmRhdGFkaGFzaFgg2mcSm4Jl7pc8d4B0F+wgH9zX4FYuava7LxZOhdsADUt0Y2xhaW1fZ2VuZXJhdG9yX2luZm+jZG5hbWVvQW50aHJvcGljIEZpbGVzZ3ZlcnNpb25lMS4wLjBrc3BlY1ZlcnNpb25lMi40LjAAABA4anVtYgAAAChqdW1kYzJjcwARABCAAACqADibcQNjMnBhLnNpZ25hdHVyZQAAABAIY2JvctKEWQISogEmGCFZAgowggIGMIIBjaADAgECAhRA5aAK7sI50L64g/oGQgU9Z1UTADAKBggqhkjOPQQDAzBJMRcwFQYDVQQKEw5BbnRocm9waWMsIFBCQzEuMCwGA1UEAxMlQW50aHJvcGljIENvbnRlbnQgQ3JlZGVudGlhbHMgUm9vdCBDQTAeFw0yNjA4MDcxODQzNTZaFw0yODA4MDYxOTQzNTZaMEQxFzAVBgNVBAoTDkFudGhyb3BpYywgUEJDMSkwJwYDVQQDEyBBbnRocm9waWMgQ2xhdWRlIENvbnRlbnQgU2lnbmluZzBZMBMGByqGSM49AgEGCCqGSM49AwEHA0IABJh6CmvLUBgFFNU0vUKlOVtE6djd17L5SuwX0LemFisBM3dkd/3cyjxFA3Qo5S46fX0/ihY0VZ7mfb9KF703t5OjWDBWMA4GA1UdDwEB/wQEAwIHgDAVBgNVHSUEDjAMBgorBgEEAYPoXgIBMAwGA1UdEwEB/wQCMAAwHwYDVR0jBBgwFoAUzlHiBIFOZFsj+OPEz5o+nMHXXMIwCgYIKoZIzj0EAwMDZwAwZAIwMXMdFJ4BetLLVY7ORuE9noqbbAZOZn/aArXyTwFAZfKrPzxF2vPoJNf1+UCdg1XGAjBwX1zd9WGqYkqmL5SFqw1QySjr1zJfpJM9+1rdDwSPLMOPOjKuiXjoU/pUUeG9RwmhY3BhZFkNngAAAAAAAAAAAAAAAAAAAAAAAAAAAAAAAAAAAAAAAAAAAAAAAAAAAAAAAAAAAAAAAAAAAAAAAAAAAAAAAAAAAAAAAAAAAAAAAAAAAAAAAAAAAAAAAAAAAAAAAAAAAAAAAAAAAAAAAAAAAAAAAAAAAAAAAAAAAAAAAAAAAAAAAAAAAAAAAAAAAAAAAAAAAAAAAAAAAAAAAAAAAAAAAAAAAAAAAAAAAAAAAAAAAAAAAAAAAAAAAAAAAAAAAAAAAAAAAAAAAAAAAAAAAAAAAAAAAAAAAAAAAAAAAAAAAAAAAAAAAAAAAAAAAAAAAAAAAAAAAAAAAAAAAAAAAAAAAAAAAAAAAAAAAAAAAAAAAAAAAAAAAAAAAAAAAAAAAAAAAAAAAAAAAAAAAAAAAAAAAAAAAAAAAAAAAAAAAAAAAAAAAAAAAAAAAAAAAAAAAAAAAAAAAAAAAAAAAAAAAAAAAAAAAAAAAAAAAAAAAAAAAAAAAAAAAAAAAAAAAAAAAAAAAAAAAAAAAAAAAAAAAAAAAAAAAAAAAAAAAAAAAAAAAAAAAAAAAAAAAAAAAAAAAAAAAAAAAAAAAAAAAAAAAAAAAAAAAAAAAAAAAAAAAAAAAAAAAAAAAAAAAAAAAAAAAAAAAAAAAAAAAAAAAAAAAAAAAAAAAAAAAAAAAAAAAAAAAAAAAAAAAAAAAAAAAAAAAAAAAAAAAAAAAAAAAAAAAAAAAAAAAAAAAAAAAAAAAAAAAAAAAAAAAAAAAAAAAAAAAAAAAAAAAAAAAAAAAAAAAAAAAAAAAAAAAAAAAAAAAAAAAAAAAAAAAAAAAAAAAAAAAAAAAAAAAAAAAAAAAAAAAAAAAAAAAAAAAAAAAAAAAAAAAAAAAAAAAAAAAAAAAAAAAAAAAAAAAAAAAAAAAAAAAAAAAAAAAAAAAAAAAAAAAAAAAAAAAAAAAAAAAAAAAAAAAAAAAAAAAAAAAAAAAAAAAAAAAAAAAAAAAAAAAAAAAAAAAAAAAAAAAAAAAAAAAAAAAAAAAAAAAAAAAAAAAAAAAAAAAAAAAAAAAAAAAAAAAAAAAAAAAAAAAAAAAAAAAAAAAAAAAAAAAAAAAAAAAAAAAAAAAAAAAAAAAAAAAAAAAAAAAAAAAAAAAAAAAAAAAAAAAAAAAAAAAAAAAAAAAAAAAAAAAAAAAAAAAAAAAAAAAAAAAAAAAAAAAAAAAAAAAAAAAAAAAAAAAAAAAAAAAAAAAAAAAAAAAAAAAAAAAAAAAAAAAAAAAAAAAAAAAAAAAAAAAAAAAAAAAAAAAAAAAAAAAAAAAAAAAAAAAAAAAAAAAAAAAAAAAAAAAAAAAAAAAAAAAAAAAAAAAAAAAAAAAAAAAAAAAAAAAAAAAAAAAAAAAAAAAAAAAAAAAAAAAAAAAAAAAAAAAAAAAAAAAAAAAAAAAAAAAAAAAAAAAAAAAAAAAAAAAAAAAAAAAAAAAAAAAAAAAAAAAAAAAAAAAAAAAAAAAAAAAAAAAAAAAAAAAAAAAAAAAAAAAAAAAAAAAAAAAAAAAAAAAAAAAAAAAAAAAAAAAAAAAAAAAAAAAAAAAAAAAAAAAAAAAAAAAAAAAAAAAAAAAAAAAAAAAAAAAAAAAAAAAAAAAAAAAAAAAAAAAAAAAAAAAAAAAAAAAAAAAAAAAAAAAAAAAAAAAAAAAAAAAAAAAAAAAAAAAAAAAAAAAAAAAAAAAAAAAAAAAAAAAAAAAAAAAAAAAAAAAAAAAAAAAAAAAAAAAAAAAAAAAAAAAAAAAAAAAAAAAAAAAAAAAAAAAAAAAAAAAAAAAAAAAAAAAAAAAAAAAAAAAAAAAAAAAAAAAAAAAAAAAAAAAAAAAAAAAAAAAAAAAAAAAAAAAAAAAAAAAAAAAAAAAAAAAAAAAAAAAAAAAAAAAAAAAAAAAAAAAAAAAAAAAAAAAAAAAAAAAAAAAAAAAAAAAAAAAAAAAAAAAAAAAAAAAAAAAAAAAAAAAAAAAAAAAAAAAAAAAAAAAAAAAAAAAAAAAAAAAAAAAAAAAAAAAAAAAAAAAAAAAAAAAAAAAAAAAAAAAAAAAAAAAAAAAAAAAAAAAAAAAAAAAAAAAAAAAAAAAAAAAAAAAAAAAAAAAAAAAAAAAAAAAAAAAAAAAAAAAAAAAAAAAAAAAAAAAAAAAAAAAAAAAAAAAAAAAAAAAAAAAAAAAAAAAAAAAAAAAAAAAAAAAAAAAAAAAAAAAAAAAAAAAAAAAAAAAAAAAAAAAAAAAAAAAAAAAAAAAAAAAAAAAAAAAAAAAAAAAAAAAAAAAAAAAAAAAAAAAAAAAAAAAAAAAAAAAAAAAAAAAAAAAAAAAAAAAAAAAAAAAAAAAAAAAAAAAAAAAAAAAAAAAAAAAAAAAAAAAAAAAAAAAAAAAAAAAAAAAAAAAAAAAAAAAAAAAAAAAAAAAAAAAAAAAAAAAAAAAAAAAAAAAAAAAAAAAAAAAAAAAAAAAAAAAAAAAAAAAAAAAAAAAAAAAAAAAAAAAAAAAAAAAAAAAAAAAAAAAAAAAAAAAAAAAAAAAAAAAAAAAAAAAAAAAAAAAAAAAAAAAAAAAAAAAAAAAAAAAAAAAAAAAAAAAAAAAAAAAAAAAAAAAAAAAAAAAAAAAAAAAAAAAAAAAAAAAAAAAAAAAAAAAAAAAAAAAAAAAAAAAAAAAAAAAAAAAAAAAAAAAAAAAAAAAAAAAAAAAAAAAAAAAAAAAAAAAAAAAAAAAAAAAAAAAAAAAAAAAAAAAAAAAAAAAAAAAAAAAAAAAAAAAAAAAAAAAAAAAAAAAAAAAAAAAAAAAAAAAAAAAAAAAAAAAAAAAAAAAAAAAAAAAAAAAAAAAAAAAAAAAAAAAAAAAAAAAAAAAAAAAAAAAAAAAAAAAAAAAAAAAAAAAAAAAAAAAAAAAAAAAAAAAAAAAAAAAAAAAAAAAAAAAAAAAAAAAAAAAAAAAAAAAAAAAAAAAAAAAAAAAAAAAAAAAAAAAAAAAAAAAAAAAAAAAAAAAAAAAAAAAAAAAAAAAAAAAAAAAAAAAAAAAAAAAAAAAAAAAAAAAAAAAAAAAAAAAAAAAAAAAAAAAAAAAAAAAAAAAAAAAAAAAAAAAAAAAAAAAAAAAAAAAAAAAAAAAAAAAAAAAAAAAAAAAAAAAAAAAAAAAAAAAAAAAAAAAAAAAAAAAAAAAAAAAAAAAAAAAAAAAAAAAAAAAAAAAAAAAAAAAAAAAAAAAAAAAAAAAAAAAAAAAAAAAAAAAAAAAAAAAAAAAAAAAAAAAAAAAAAAAAAAAAAAAAAAAAAAAAAAAAAAAAAAAAAAAAAAAAAAAAAAAAAAAAAAAAAAAAAAAAAAAAAAAAAAAAAAAAAAAAAAAAAAAAAAAAAAAAAAAAAAAAAAAAAAAAAAAAAAAAAAAAAAAAAAAAAAAAAAAAAAAAAAAAAAAAAAAAAAAAAAAAAAAAAAAAAAAAAAAAAAAAAAAAAAAAAAAAAAAAAAAAAAAAAAAAAAAAAAAAAAAAAAAAAAAAAAAAAAAAAAAAAAAAAAAAAAAAAAAAAAAAAAAAAAAAAAAAAAAAAAAAAAAAAAAAAAAAAAAAAAAAAAAAAAAAAAAAAAAAAAAAAAAAAAAAAAAAAAAAAAAAAAAAAAAAAAAAAAAAAAAAAAAAAAAAAAAAAAAAAAAAAAAAAAAAAAAAAAAAAAAAAAAAAAAAAAAAAAAAAAAAAAAAAAAAAAAAAAAAAAAAAAAAAAAAAAAAAAAAAAAAAAAAAAAAAAAAAAAAAAAAAAAAAAAAAAAAAAAAAAAAAAAAAAAAAAAAAAAAAAAAAAAAAAAAAAAAAAAAAAAAAAAAAAAAAAAAAAAAAAAAAAAAAAAAAAAAAAAAAAAAAAAAAAAAAAAAAAAAAAAAAAAAAAAAAAAAAAAAAAAAAAAAAAAAAAAAAAAAAAAAAAAAAAAAAAAAAAAAAAAAAAAAAAAAAAAAAAAAAAAAAAAAAAAAAAAAAAAAAAAAAAAAAAAAAAAAAAAAAAAAAAAAAAAAAAAAAAAAAAAAAAAAAAAAAAAAAAAAAAAAAAAAAAAAAAAAAAAAAAAAAAAAAAAAAAAAAAAAAAAAAAAAAAAAAAAAAAAAAAAAAAAAAAAAAAAAAAAAAAAAAAAAAAAAAAAAAAAAAAAAAAAAAAAAAAAAAAAAAAAAAAAAAAAAAAAAAAAAAAAAAAAAAAAAAAAAAAAAAAAAAAAAAAAAAAAAAAAAAAAAAAAAAAAAAAAAAAAAAAAAAAAAAAAAAAAAAAAAAAAAAAAAAAAAAAAAAAAAAAAAAAAAAAAAAAAAAAAAAAAAAAAAAAAAAAAAAAAAAAAAAAAAAAAAAAAAAAAAAAAAAAAAAAAAAAAAAAAAAAAAAAAAAAAAAAAAAAAAAAAAAAAAAAAAAAAAAAAAAAAAAAAAAAAAAAAAAAAAAAAAAAAAAAAAAAAAAAAAAAAAAAAAAAAAAAAAAAAAAAAAAAAAAAAAAAAAAAAAAAAAAAAAAAAAAAAAAAAAAAAAAAAAAAAAAAAAAAAAAAAAAAAAAAAAAAAAAAAAAAAAAAAAAAAAAAAAAAAAAAAAAAAAAAAAAAAAAAAAAAAAAAAAAAAAAAAAAAAAAAAAAAAAAAAAAAAAAAAAAAAAAAAAAAAAAAAAAAAAAAAAAAAAAAAAAAAAAAAAAAAAAAAAAAAAAAAPZYQADcEUo/zGb7nd82nshATiwajqqiqvD9W5aKSq5ogC+wnELxMwdzfslV5+5aNy4LeI7cp6aHqBXz1wTDoUA5D+E=</c2pa:manifest></metadata><defs><filter id="sh" x="-10%" y="-10%" width="130%" height="140%"><feDropShadow dx="0" dy="1.5" stdDeviation="2.2" flood-color="#1f2328" flood-opacity="0.13"/></filter><marker id="m1f2328" viewBox="0 0 10 10" refX="8.6" refY="5" markerWidth="7" markerHeight="7" orient="auto"><path d="M0,0.8 L9.5,5 L0,9.2 L2.6,5 z" fill="#1f2328"/></marker><marker id="m1f2328s" viewBox="0 0 10 10" refX="1.4" refY="5" markerWidth="7" markerHeight="7" orient="auto"><path d="M10,0.8 L0.5,5 L10,9.2 L7.4,5 z" fill="#1f2328"/></marker></defs><text x="63.0" y="242.0" font-size="10.5" font-weight="400" fill="#6b7280" text-anchor="end"><tspan x="63.0" dy="0.0">80</tspan></text><text x="63.0" y="175.3" font-size="10.5" font-weight="400" fill="#6b7280" text-anchor="end"><tspan x="63.0" dy="0.0">96</tspan></text><text x="63.0" y="75.3" font-size="10.5" font-weight="400" fill="#6b7280" text-anchor="end"><tspan x="63.0" dy="0.0">120</tspan></text><text x="70.0" y="296.0" font-size="10.5" font-weight="400" fill="#6b7280" text-anchor="middle"><tspan x="70.0" dy="0.0">0</tspan></text><text x="200.0" y="296.0" font-size="10.5" font-weight="400" fill="#6b7280" text-anchor="middle"><tspan x="200.0" dy="0.0">0,4</tspan></text><text x="330.0" y="296.0" font-size="10.5" font-weight="400" fill="#6b7280" text-anchor="middle"><tspan x="330.0" dy="0.0">0,8</tspan></text><text x="460.0" y="296.0" font-size="10.5" font-weight="400" fill="#6b7280" text-anchor="middle"><tspan x="460.0" dy="0.0">1,2</tspan></text><text x="590.0" y="296.0" font-size="10.5" font-weight="400" fill="#6b7280" text-anchor="middle"><tspan x="590.0" dy="0.0">1,6</tspan></text><path d="M70.0,280.0 L590.0,280.0" fill="none" stroke="#9aa1ab" stroke-width="1.3" stroke-linecap="round" stroke-linejoin="round" opacity="1"/><path d="M70.0,30.0 L70.0,280.0" fill="none" stroke="#9aa1ab" stroke-width="1.3" stroke-linecap="round" stroke-linejoin="round" opacity="1"/><text x="330.0" y="314.0" font-size="11.5" font-weight="400" fill="#6b7280" text-anchor="middle"><tspan x="330.0" dy="0.0">tempo (s)</tspan></text><text x="28.0" y="155.0" font-size="11.5" font-weight="400" fill="#6b7280" text-anchor="middle" transform="rotate(-90 28.0 155.0)"><tspan x="28.0" dy="0.0">mmHg</tspan></text><path d="M70.0,71.7 L590.0,71.7" fill="none" stroke="#6b7280" stroke-width="1" stroke-linecap="round" stroke-linejoin="round" opacity="1" stroke-dasharray="5 4"/><path d="M70.0,238.3 L590.0,238.3" fill="none" stroke="#6b7280" stroke-width="1" stroke-linecap="round" stroke-linejoin="round" opacity="1" stroke-dasharray="5 4"/><path d="M70.0,171.7 L590.0,171.7" fill="none" stroke="#23803d" stroke-width="1.3" stroke-linecap="round" stroke-linejoin="round" opacity="1" stroke-dasharray="8 4"/><path d="M70.0,238.3 L70.7,238.2 L71.3,237.8 L72.0,237.4 L72.6,236.9 L73.2,236.3 L73.9,235.7 L74.5,235.0 L75.2,234.3 L75.8,233.5 L76.5,232.7 L77.2,231.8 L77.8,230.9 L78.5,230.0 L79.1,229.0 L79.8,228.0 L80.4,227.0 L81.0,225.9 L81.7,224.8 L82.3,223.7 L83.0,222.5 L83.7,221.4 L84.3,220.1 L85.0,218.9 L85.6,217.7 L86.2,216.4 L86.9,215.1 L87.5,213.8 L88.2,212.4 L88.8,211.1 L89.5,209.7 L90.2,208.3 L90.8,206.9 L91.5,205.5 L92.1,204.0 L92.8,202.6 L93.4,201.1 L94.0,199.6 L94.7,198.1 L95.3,196.6 L96.0,195.1 L96.7,193.6 L97.3,192.0 L97.9,190.5 L98.6,188.9 L99.2,187.4 L99.9,185.8 L100.5,184.2 L101.2,182.6 L101.8,181.0 L102.5,179.4 L103.1,177.8 L103.8,176.2 L104.4,174.6 L105.1,173.0 L105.8,171.3 L106.4,169.7 L107.0,168.1 L107.7,166.5 L108.3,164.9 L109.0,163.2 L109.7,161.6 L110.3,160.0 L111.0,158.4 L111.6,156.7 L112.2,155.1 L112.9,153.5 L113.6,151.9 L114.2,150.3 L114.8,148.7 L115.5,147.1 L116.1,145.5 L116.8,143.9 L117.4,142.4 L118.1,140.8 L118.8,139.2 L119.4,137.7 L120.0,136.1 L120.7,134.6 L121.3,133.1 L122.0,131.6 L122.7,130.1 L123.3,128.6 L123.9,127.1 L124.6,125.6 L125.2,124.2 L125.9,122.7 L126.5,121.3 L127.2,119.9 L127.8,118.4 L128.5,117.1 L129.1,115.7 L129.8,114.3 L130.4,113.0 L131.1,111.6 L131.8,110.3 L132.4,109.0 L133.1,107.7 L133.7,106.5 L134.3,105.2 L135.0,104.0 L135.7,102.8 L136.3,101.6 L136.9,100.4 L137.6,99.3 L138.2,98.2 L138.9,97.0 L139.5,96.0 L140.2,94.9 L140.8,93.8 L141.5,92.8 L142.1,91.8 L142.8,90.8 L143.4,89.9 L144.1,88.9 L144.8,88.0 L145.4,87.1 L146.1,86.2 L146.7,85.4 L147.3,84.6 L148.0,83.8 L148.6,83.0 L149.3,82.2 L149.9,81.5 L150.6,80.8 L151.2,80.1 L151.9,79.5 L152.6,78.8 L153.2,78.2 L153.9,77.7 L154.5,77.1 L155.2,76.6 L155.8,76.1 L156.4,75.6 L157.1,75.2 L157.8,74.7 L158.4,74.3 L159.1,74.0 L159.7,73.6 L160.4,73.3 L161.0,73.0 L161.6,72.8 L162.3,72.5 L162.9,72.3 L163.6,72.2 L164.2,72.0 L164.9,71.9 L165.5,71.8 L166.2,71.7 L166.8,71.7 L167.5,71.7 L168.1,75.0 L168.8,78.3 L169.4,81.7 L170.1,85.0 L170.8,88.3 L171.4,91.7 L172.0,95.0 L172.7,98.3 L173.3,101.7 L174.0,105.0 L174.6,108.3 L175.3,111.7 L175.9,115.0 L176.6,118.3 L177.2,105.0 L177.9,103.6 L178.6,102.2 L179.2,101.1 L179.8,100.3 L180.5,99.8 L181.1,99.9 L181.8,100.4 L182.4,101.5 L183.1,103.2 L183.8,105.3 L184.4,107.9 L185.0,110.9 L185.7,114.2 L186.3,117.7 L187.0,121.4 L187.6,122.4 L188.3,123.4 L188.9,124.4 L189.6,125.4 L190.2,126.4 L190.9,127.4 L191.6,128.4 L192.2,129.4 L192.8,130.4 L193.5,131.3 L194.1,132.3 L194.8,133.2 L195.4,134.2 L196.1,135.1 L196.8,136.0 L197.4,137.0 L198.1,137.9 L198.7,138.8 L199.3,139.7 L200.0,140.6 L200.6,141.5 L201.3,142.4 L201.9,143.2 L202.6,144.1 L203.2,145.0 L203.9,145.8 L204.5,146.7 L205.2,147.5 L205.8,148.4 L206.5,149.2 L207.2,150.0 L207.8,150.9 L208.4,151.7 L209.1,152.5 L209.8,153.3 L210.4,154.1 L211.0,154.9 L211.7,155.7 L212.3,156.4 L213.0,157.2 L213.7,158.0 L214.3,158.8 L214.9,159.5 L215.6,160.3 L216.2,161.0 L216.9,161.8 L217.6,162.5 L218.2,163.2 L218.8,164.0 L219.5,164.7 L220.2,165.4 L220.8,166.1 L221.5,166.8 L222.1,167.5 L222.7,168.2 L223.4,168.9 L224.0,169.6 L224.7,170.3 L225.3,171.0 L226.0,171.7 L226.6,172.3 L227.3,173.0 L227.9,173.6 L228.6,174.3 L229.2,175.0 L229.9,175.6 L230.5,176.2 L231.2,176.9 L231.8,177.5 L232.5,178.1 L233.1,178.8 L233.8,179.4 L234.4,180.0 L235.1,180.6 L235.8,181.2 L236.4,181.8 L237.0,182.4 L237.7,183.0 L238.3,183.6 L239.0,184.2 L239.7,184.8 L240.3,185.4 L240.9,185.9 L241.6,186.5 L242.2,187.1 L242.9,187.6 L243.5,188.2 L244.2,188.8 L244.8,189.3 L245.5,189.9 L246.2,190.4 L246.8,190.9 L247.4,191.5 L248.1,192.0 L248.8,192.6 L249.4,193.1 L250.1,193.6 L250.7,194.1 L251.3,194.6 L252.0,195.2 L252.7,195.7 L253.3,196.2 L253.9,196.7 L254.6,197.2 L255.2,197.7 L255.9,198.2 L256.5,198.7 L257.2,199.1 L257.8,199.6 L258.5,200.1 L259.1,200.6 L259.8,201.1 L260.4,201.5 L261.1,202.0 L261.8,202.5 L262.4,202.9 L263.0,203.4 L263.7,203.8 L264.4,204.3 L265.0,204.7 L265.6,205.2 L266.3,205.6 L266.9,206.1 L267.6,206.5 L268.2,206.9 L268.9,207.4 L269.5,207.8 L270.2,208.2 L270.9,208.7 L271.5,209.1 L272.1,209.5 L272.8,209.9 L273.4,210.3 L274.1,210.8 L274.8,211.2 L275.4,211.6 L276.0,212.0 L276.7,212.4 L277.4,212.8 L278.0,213.2 L278.6,213.6 L279.3,214.0 L279.9,214.3 L280.6,214.7 L281.2,215.1 L281.9,215.5 L282.6,215.9 L283.2,216.3 L283.9,216.6 L284.5,217.0 L285.1,217.4 L285.8,217.7 L286.5,218.1 L287.1,218.5 L287.8,218.8 L288.4,219.2 L289.1,219.5 L289.7,219.9 L290.4,220.3 L291.0,220.6 L291.6,221.0 L292.3,221.3 L293.0,221.6 L293.6,222.0 L294.2,222.3 L294.9,222.7 L295.5,223.0 L296.2,223.3 L296.9,223.7 L297.5,224.0 L298.1,224.3 L298.8,224.7 L299.4,225.0 L300.1,225.3 L300.8,225.6 L301.4,225.9 L302.0,226.3 L302.7,226.6 L303.4,226.9 L304.0,227.2 L304.6,227.5 L305.3,227.8 L305.9,228.1 L306.6,228.4 L307.2,228.7 L307.9,229.0 L308.5,229.3 L309.2,229.6 L309.9,229.9 L310.5,230.2 L311.1,230.5 L311.8,230.8 L312.4,231.1 L313.1,231.4 L313.8,231.7 L314.4,231.9 L315.1,232.2 L315.7,232.5 L316.4,232.8 L317.0,233.1 L317.6,233.3 L318.3,233.6 L319.0,233.9 L319.6,234.2 L320.2,234.4 L320.9,234.7 L321.6,235.0 L322.2,235.2 L322.9,235.5 L323.5,235.8 L324.1,236.0 L324.8,236.3 L325.5,236.6 L326.1,236.8 L326.8,237.1 L327.4,237.3 L328.1,237.6 L328.7,237.8 L329.4,238.1 L330.0,238.3 L330.6,238.2 L331.3,237.8 L331.9,237.4 L332.6,236.9 L333.2,236.3 L333.9,235.7 L334.5,235.0 L335.2,234.3 L335.8,233.5 L336.5,232.7 L337.1,231.8 L337.8,230.9 L338.4,230.0 L339.1,229.0 L339.7,228.0 L340.4,227.0 L341.1,225.9 L341.7,224.8 L342.3,223.7 L343.0,222.5 L343.6,221.4 L344.3,220.1 L344.9,218.9 L345.6,217.7 L346.2,216.4 L346.9,215.1 L347.5,213.8 L348.2,212.4 L348.9,211.1 L349.5,209.7 L350.1,208.3 L350.8,206.9 L351.4,205.5 L352.1,204.0 L352.8,202.6 L353.4,201.1 L354.1,199.6 L354.7,198.1 L355.3,196.6 L356.0,195.1 L356.7,193.6 L357.3,192.0 L357.9,190.5 L358.6,188.9 L359.2,187.4 L359.9,185.8 L360.6,184.2 L361.2,182.6 L361.9,181.0 L362.5,179.4 L363.1,177.8 L363.8,176.2 L364.4,174.6 L365.1,173.0 L365.8,171.3 L366.4,169.7 L367.1,168.1 L367.7,166.5 L368.3,164.9 L369.0,163.2 L369.7,161.6 L370.3,160.0 L370.9,158.4 L371.6,156.7 L372.2,155.1 L372.9,153.5 L373.6,151.9 L374.2,150.3 L374.8,148.7 L375.5,147.1 L376.1,145.5 L376.8,143.9 L377.4,142.4 L378.1,140.8 L378.7,139.2 L379.4,137.7 L380.0,136.1 L380.7,134.6 L381.3,133.1 L382.0,131.6 L382.6,130.1 L383.3,128.6 L383.9,127.1 L384.6,125.6 L385.2,124.2 L385.9,122.7 L386.5,121.3 L387.2,119.9 L387.8,118.4 L388.5,117.1 L389.1,115.7 L389.8,114.3 L390.4,113.0 L391.1,111.6 L391.7,110.3 L392.4,109.0 L393.1,107.7 L393.7,106.5 L394.3,105.2 L395.0,104.0 L395.6,102.8 L396.3,101.6 L396.9,100.4 L397.6,99.3 L398.2,98.2 L398.9,97.0 L399.5,96.0 L400.2,94.9 L400.8,93.8 L401.5,92.8 L402.1,91.8 L402.8,90.8 L403.4,89.9 L404.1,88.9 L404.7,88.0 L405.4,87.1 L406.1,86.2 L406.7,85.4 L407.3,84.6 L408.0,83.8 L408.6,83.0 L409.3,82.2 L409.9,81.5 L410.6,80.8 L411.2,80.1 L411.9,79.5 L412.5,78.8 L413.2,78.2 L413.9,77.7 L414.5,77.1 L415.1,76.6 L415.8,76.1 L416.4,75.6 L417.1,75.2 L417.8,74.7 L418.4,74.3 L419.1,74.0 L419.7,73.6 L420.3,73.3 L421.0,73.0 L421.7,72.8 L422.3,72.5 L422.9,72.3 L423.6,72.2 L424.2,72.0 L424.9,71.9 L425.6,71.8 L426.2,71.7 L426.9,71.7 L427.5,71.7 L428.1,75.0 L428.8,78.3 L429.4,81.7 L430.1,85.0 L430.8,88.3 L431.4,91.7 L432.1,95.0 L432.7,98.3 L433.3,101.7 L434.0,105.0 L434.7,108.3 L435.3,111.7 L435.9,115.0 L436.6,118.3 L437.2,121.7 L437.9,103.6 L438.5,102.2 L439.2,101.1 L439.8,100.3 L440.5,99.8 L441.1,99.9 L441.8,100.4 L442.4,101.5 L443.1,103.2 L443.7,105.3 L444.4,107.9 L445.0,110.9 L445.7,114.2 L446.3,117.7 L447.0,121.4 L447.6,122.4 L448.3,123.4 L448.9,124.4 L449.6,125.4 L450.2,126.4 L450.9,127.4 L451.5,128.4 L452.2,129.4 L452.8,130.4 L453.5,131.3 L454.1,132.3 L454.8,133.2 L455.4,134.2 L456.1,135.1 L456.7,136.0 L457.4,137.0 L458.1,137.9 L458.7,138.8 L459.3,139.7 L460.0,140.6 L460.6,141.5 L461.3,142.4 L461.9,143.2 L462.6,144.1 L463.2,145.0 L463.9,145.8 L464.5,146.7 L465.2,147.5 L465.8,148.4 L466.5,149.2 L467.1,150.0 L467.8,150.9 L468.4,151.7 L469.1,152.5 L469.7,153.3 L470.4,154.1 L471.1,154.9 L471.7,155.7 L472.3,156.4 L473.0,157.2 L473.6,158.0 L474.3,158.8 L474.9,159.5 L475.6,160.3 L476.2,161.0 L476.9,161.8 L477.5,162.5 L478.2,163.2 L478.9,164.0 L479.5,164.7 L480.1,165.4 L480.8,166.1 L481.4,166.8 L482.1,167.5 L482.8,168.2 L483.4,168.9 L484.1,169.6 L484.7,170.3 L485.3,171.0 L486.0,171.7 L486.7,172.3 L487.3,173.0 L487.9,173.6 L488.6,174.3 L489.2,175.0 L489.9,175.6 L490.6,176.2 L491.2,176.9 L491.9,177.5 L492.5,178.1 L493.1,178.8 L493.8,179.4 L494.4,180.0 L495.1,180.6 L495.8,181.2 L496.4,181.8 L497.1,182.4 L497.7,183.0 L498.3,183.6 L499.0,184.2 L499.7,184.8 L500.3,185.4 L500.9,185.9 L501.6,186.5 L502.2,187.1 L502.9,187.6 L503.6,188.2 L504.2,188.8 L504.9,189.3 L505.5,189.9 L506.1,190.4 L506.8,190.9 L507.5,191.5 L508.1,192.0 L508.8,192.6 L509.4,193.1 L510.1,193.6 L510.7,194.1 L511.4,194.6 L512.0,195.2 L512.7,195.7 L513.3,196.2 L514.0,196.7 L514.6,197.2 L515.2,197.7 L515.9,198.2 L516.5,198.7 L517.2,199.1 L517.8,199.6 L518.5,200.1 L519.1,200.6 L519.8,201.1 L520.4,201.5 L521.1,202.0 L521.8,202.5 L522.4,202.9 L523.0,203.4 L523.7,203.8 L524.3,204.3 L525.0,204.7 L525.6,205.2 L526.3,205.6 L526.9,206.1 L527.6,206.5 L528.2,206.9 L528.9,207.4 L529.5,207.8 L530.2,208.2 L530.8,208.7 L531.5,209.1 L532.1,209.5 L532.8,209.9 L533.4,210.3 L534.1,210.8 L534.8,211.2 L535.4,211.6 L536.0,212.0 L536.7,212.4 L537.3,212.8 L538.0,213.2 L538.6,213.6 L539.3,214.0 L540.0,214.3 L540.6,214.7 L541.2,215.1 L541.9,215.5 L542.5,215.9 L543.2,216.3 L543.8,216.6 L544.5,217.0 L545.1,217.4 L545.8,217.7 L546.4,218.1 L547.1,218.5 L547.8,218.8 L548.4,219.2 L549.0,219.5 L549.7,219.9 L550.3,220.3 L551.0,220.6 L551.6,221.0 L552.3,221.3 L553.0,221.6 L553.6,222.0 L554.2,222.3 L554.9,222.7 L555.5,223.0 L556.2,223.3 L556.8,223.7 L557.5,224.0 L558.1,224.3 L558.8,224.7 L559.4,225.0 L560.1,225.3 L560.8,225.6 L561.4,225.9 L562.0,226.3 L562.7,226.6 L563.3,226.9 L564.0,227.2 L564.6,227.5 L565.3,227.8 L566.0,228.1 L566.6,228.4 L567.2,228.7 L567.9,229.0 L568.5,229.3 L569.2,229.6 L569.8,229.9 L570.5,230.2 L571.1,230.5 L571.8,230.8 L572.5,231.1 L573.1,231.4 L573.8,231.7 L574.4,231.9 L575.0,232.2 L575.7,232.5 L576.4,232.8 L577.0,233.1 L577.6,233.3 L578.3,233.6 L579.0,233.9 L579.6,234.2 L580.2,234.4 L580.9,234.7 L581.5,235.0 L582.2,235.2 L582.9,235.5 L583.5,235.8 L584.1,236.0 L584.8,236.3 L585.4,236.6 L586.1,236.8 L586.8,237.1 L587.4,237.3 L588.0,237.6 L588.7,237.8 L589.4,238.1" fill="none" stroke="#b42336" stroke-width="3" stroke-linecap="round" stroke-linejoin="round" opacity="1"/><path d="M284.5,236.3 L284.5,73.7" fill="none" stroke="#1f2328" stroke-width="1.6" stroke-linecap="round" stroke-linejoin="round" marker-end="url(#m1f2328)" marker-start="url(#m1f2328s)"/><rect x="207.5" y="122.6" width="72.0" height="31.5" rx="10" fill="#ffffffe8" stroke="none" stroke-width="1.2" opacity="1"/><text x="276.5" y="135.3" font-size="11" font-weight="700" fill="#1f2328" text-anchor="end"><tspan x="276.5" dy="0.0">pressão de</tspan><tspan x="276.5" dy="13.8">pulso = 40</tspan></text><path d="M232.5,50.8 L185.1,106.2" fill="none" stroke="#1f2328" stroke-width="1.2" stroke-linecap="round" stroke-linejoin="round" marker-end="url(#m1f2328)"/><text x="232.5" y="48.8" font-size="11" font-weight="600" fill="#1f2328" text-anchor="start"><tspan x="232.5" dy="0.0">incisura (fecha a valva aórtica)</tspan></text><text x="606.0" y="75.9" font-size="12" font-weight="700" fill="#1f2328" text-anchor="start"><tspan x="606.0" dy="0.0">sistólica 120</tspan></text><text x="606.0" y="242.5" font-size="12" font-weight="700" fill="#1f2328" text-anchor="start"><tspan x="606.0" dy="0.0">diastólica 80</tspan></text><text x="606.0" y="168.5" font-size="11.5" font-weight="700" fill="#23803d" text-anchor="start"><tspan x="606.0" dy="0.0">PAM ≈ 96</tspan><tspan x="606.0" dy="14.4">(60% PD + 40% PS)</tspan></text></svg>